<mxfile host="app.diagrams.net" modified="2024-11-08T11:42:30.670Z" agent="Mozilla/5.0 (X11; Linux x86_64; rv:131.0) Gecko/20100101 Firefox/131.0" etag="PMoIvU_ca2FpTkzSxrup" version="24.0.6" type="device">
  <diagram name="Page-1" id="xIfBi_u6IkUXRxTOs7-w">
    <mxGraphModel dx="1955" dy="511" grid="1" gridSize="10" guides="1" tooltips="1" connect="1" arrows="1" fold="1" page="1" pageScale="1" pageWidth="850" pageHeight="1100" math="0" shadow="0">
      <root>
        <mxCell id="0" />
        <mxCell id="1" parent="0" />
        <mxCell id="v258VC3TH_JYletUSXbh-14" value="" style="rounded=0;whiteSpace=wrap;html=1;shadow=1;" vertex="1" parent="1">
          <mxGeometry y="50" width="920" height="510" as="geometry" />
        </mxCell>
        <UserObject label="" id="v258VC3TH_JYletUSXbh-74">
          <mxCell style="rounded=0;whiteSpace=wrap;html=1;dashed=1;fillColor=#f5f5f5;strokeColor=#666666;fontColor=#333333;" vertex="1" parent="1">
            <mxGeometry x="10" y="270" width="900" height="279" as="geometry" />
          </mxCell>
        </UserObject>
        <UserObject label="" id="v258VC3TH_JYletUSXbh-15">
          <mxCell style="rounded=0;whiteSpace=wrap;html=1;dashed=1;fillColor=#f5f5f5;strokeColor=#666666;fontColor=#333333;" vertex="1" parent="1">
            <mxGeometry x="300" y="100" width="610" height="160" as="geometry" />
          </mxCell>
        </UserObject>
        <mxCell id="v258VC3TH_JYletUSXbh-16" value="&lt;font color=&quot;#00060d&quot;&gt;&lt;i&gt;&lt;font size=&quot;1&quot;&gt;&lt;b&gt;&lt;font style=&quot;font-size: 15px;&quot;&gt;Indexing&lt;/font&gt;&lt;/b&gt;&lt;/font&gt;&lt;/i&gt;&lt;/font&gt;" style="text;html=1;align=center;verticalAlign=middle;whiteSpace=wrap;rounded=0;" vertex="1" parent="1">
          <mxGeometry x="556.25" y="100" width="87.5" height="30" as="geometry" />
        </mxCell>
        <mxCell id="v258VC3TH_JYletUSXbh-23" value="" style="edgeStyle=orthogonalEdgeStyle;rounded=0;orthogonalLoop=1;jettySize=auto;html=1;flowAnimation=1;strokeColor=#007FFF;" edge="1" parent="1" source="v258VC3TH_JYletUSXbh-18" target="v258VC3TH_JYletUSXbh-22">
          <mxGeometry relative="1" as="geometry" />
        </mxCell>
        <mxCell id="v258VC3TH_JYletUSXbh-18" value="" style="shape=image;verticalLabelPosition=bottom;labelBackgroundColor=default;verticalAlign=top;aspect=fixed;imageAspect=0;image=data:image/png,iVBORw0KGgoAAAANSUhEUgAAAgAAAAIACAMAAADDpiTIAAAAA3NCSVQICAjb4U/gAAAACXBIWXMAABueAAAbngFXYUKmAAAAGXRFWHRTb2Z0d2FyZQB3d3cuaW5rc2NhcGUub3Jnm+48GgAAAsRQTFRF////AAAAAAAAAAAAAAAAAAAAAAAAAAAAAAAAAAAAAAAAAAAAAAAAAAAAAAAAAAAAAAAAAAAAAAAAAAAAAAAAAAAAAAAAAAAAAAAAAAAAAAAAAAAAAAAAAAAAAAAAAAAAAAAAAAAAAAAAAAAAAAAAAAAAAAAAAAAAAAAAAAAAAAAAAAAAAAAAAAAAAAAAAAAAAAAAAAAAAAAAAAAAAAAAAAAAAAAAAAAAAAAAAAAAAAAAAAAAAAAAAAAAAAAAAAAAAAAAAAAAAAAAAAAAAAAAAAAAAAAAAAAAAAAAAAAAAAAAAAAAAAAAAAAAAAAAAAAAAAAAAAAAAAAAAAAAAAAAAAAAAAAAAAAAAAAAAAAAAAAAAAAAAAAAAAAAAAAAAAAAAAAAAAAAAAAAAAAAAAAAAAAAAAAAAAAAAAAAAAAAAAAAAAAAAAAAAAAAAAAAAAAAAAAAAAAAAAAAAAAAAAAAAAAAAAAAAAAAAAAAAAAAAAAAAAAAAAAAAAAAAAAAAAAAAAAAAAAAAAAAAAAAAAAAAAAAAAAAAAAAAAAAAAAAAAAAAAAAAAAAAAAAAAAAAAAAAAAAAAAAAAAAAAAAAAAAAAAAAAAAAAAAAAAAAAAAAAAAAAAAAAAAAAAAAAAAAAAAAAAAAAAAAAAAAAAAAAAAAAAAAAAAAAAAAAAAAAAAAAAAAAAAAAAAAAAAAAAAAAAAAAAAAAAAAAAAAAAAAAAAAAAAAAAAAAAAAAAAAAAAAAAAAAAAAAAAAAAAAAAAAAAAAAAAAAAAAAAAAAAAAAAAAAAAAAAAAAAAAAAAAAAAAAAAAAAAAAAAAAAAAAAAAAAAAAAAAAAAAAAAAAAAAAAAAAAAAAAAAAAAAAAAAAAAAAAAAAAAAAAAAAAAAAAAAAAAAAAAAAAAAAAAAAAAAAAAAAAAAAAAAAAAAAAAAAAAAAAAAAAAvwsqPgAAAOt0Uk5TAAECAwQFBgcICQoMDQ4PEBESExQVFhcYGRobHB0eHyAhIiMkJScoKSorLC0uLzAxMjM0NTY3ODk6Ozw9Pj9AQUNERUZHSElKS0xNTk9QUVJTVFVXWFlaW11eX2BhYmNkZWZnaGlqa2xtbm9wcXN0dXZ3eHl6e3x9fn+AgoOEhYeIiouMjY6QkpOUlZaXmJmam5ydn6ChoqOkpqeoqausra6vsLGztLW2t7i5uru9vr/AwcLDxMXGx8jKy83Oz9DR09TV1tfY2drb3N3f4OHi4+Tl5ufo6err7O3u7/Dx8vP09fb3+Pn6+/z9/h7jndEAAAviSURBVHja7d3/d9V1HcDxz4U7YF9gG2OsIKdZI52JEUYohIhpmgZlZIEmKCZfDAwTaKD4BURQilQwASuQhuC3rXQKJATWZjFRKJIvinNs7G739U90gI6cftjuZ6cXnvt6v57PnzmHc+/rce62z+f9ed0oyuLWi8+Oj4vIMwBpvZbhuwYgbeOZvmsAkprI+F0DkPbJzN81AElPBYBrAJKeAQDx3RwAOG8+AJx3HwCc9zAAnPdoAgC+W5UAgO/W9ASA79YlAeC7DTkA8F11bwD47sVcAPiuJh8AvqvrCwDfbS8CgO92lgDAd3sGAsB39YMA4Lu95QDw3b7zAXCq3TcH1uGYAvZXAOBkW0N7qe/E/Qw4eCEAXAOQQ0MB4BqAHB0OANcA5NhIALgGIE1jAOAagJsFAgDoLCcLBADQaW0TAOAagI8FAgDoIg8LBADQVenbAOAagIMFAgDI0BwA+AYQ+gIBAGTsfgD4BhD2AgEAxGh5AgCuAYS8QGBpfWf9GgBncrxAAACn8rtAAACnc7tAAADOFwgAwPkCAQB8Um0+b6JrAD4XCADA+QIBADhfIAAAKwsENu7yWXXhpwlApmUtgHqvz3O/2R8ArgHI7lIAuAYgf/ssAFwDkL9/DgCuAUjjeQBwDUDe+yIAXAOQf10AAN+9/2UA+O7IMAD47sMRAPDdR6MA4LvmsQDwXcs1nb9Bl4yIHwCsduIGlTcTAGZruxEAvmv/IQB81/FjAPgufQcAnHcXAJw3FwDOqwKA8x4AgPMeAYDzHksAwHdP9ADAqXYuC6uVcQX8picATrYsCqvC2J8BzyYB4BqAPNcLAK4ByPN9AOAagLyUBwDXAOSP+QBwDUBe7wcA1wBkRzEAXAOQXQMA4BqAvFUGANcApGEQAFwDkL3lAHANQPadDwDXAORABQBcA5CDlQBwDUAODQWAawBydDgAXAOQYyMB4BqANI0BgGsAcnxcsAAKCjsrFwBnar02VAB++r8ASNt4ALgGIKmJAHANQNonAcA1AOmYCgDXACQ9HQCuAYjMBoBvADIPAL4ByCIA+AYglQDwDWAoAAAAAAAAAADZByC3zGcDAXC6aV7X+ixPAMA1AFnVAwCuAciangBwDUDWJwHgGoBs6AUA1wCkujcAXAOQF/MA4LvaLhc79ZoWvyoAmKyur9I7OQQANttRBADf7SoBgO/2lAHAd91d7ASA0OrmYicABFf3FjsBILy6tdgJAAHWncVOAAixQ5cAwHdHLwWA745dBgDffTwGAL47fhUAfNd6HQB81zYBAL5L/QAAvuuYDIDTXR1YL8UUkL4NAKeKAmt13M+A9EwAuAYgcjcAfAOQBQDwDUDuB4BvALIEAL4BxFsgAIBwAcRaIACAgAHEWSAAgJABxFggAICgAWReIACAsAHI5j4AcA0g0wIBAIQOIMMCAQAED0Be7wcA1wDiLhAAQKgAYi4QAECwAOItEABAuABiLRAAQMAA4iwQAEDIAGIsEABA0AAyLxAAQNgAMi4QAEDgADItEABA6AAyLBAAQPAAul4gAIDwAXS5QAAADgB0tUAAAB4ASOs1AHANQFYDAAAAAAAAAAAAAAAAAAAAAAAAAAAAAAAAAAAAAAAAAAAAIBsrOTd+2wAQHoDuVAsAAAAAAAAAAAAAAAAAAAAAAAAAAAAAAAAAAAAAAAAAAAAAAAAAAAAAAAAAAAAAAAAAAAAAAAAAAAAAAAAAAAAAAAAAAAAAAAAAAAAAAAAAAAAAAAAAAAAAAAAAAAAAAAAAAAAAAAAAAIYBFF05+e57sr65U751DgDOAoDRL6fESm/eAgBlAIl728VSawsAoAmgaIsY6+2LAKAI4CkxV0MSAGoAhqXtAZAZAFAD8CeD85fDhQBQAnCpmGwWAJQA3GoTwJMAUAKwxCaAbQBQArDZJoCPEgDQAVBrE0AqCQAdAL+0CeCv/AhQAnCXTQC/BYASgG/aBLAQAEoA8g5YnH97JQC0rgROsghgFZeC1QAkdtibf9NAAOjdDfzqYXN/A97K7WDNAyGD62zN/73LOBCieyQs+XDK0Pw39edImDKAKCr60YqNdduyvjeqV80oj/uaACAcCwcAAAAAAAAAAAAAAAAAAAAAAAAAAAAAAAAAAAAAAAAAAAAAAAAAAAAAAAAAAAAAAAAAAAAAAAAAAAAAAAAAAAAAAAAAAAAAAAAAIFwA+RWjxmR936gsBsDZAPCZxW9ZeTj8wONDAaAN4Mp/W9oPcWImAFQB9FjYYWtDiGwoBIAigCox1ysA0AMwqNkeAPk2ANQAPG1w/lKfBIASgAqLXxkkMgkASgBuMjl/WQEAJQD32QRQAwAlAL+zCeB9ACgBqLMJIJ0DAB0Aa2wCaOQTQAnAPTYB/AEASgCutwngQQAoARjQZBLAFQDQuhL4c4vzr+ZSsBqAPu/Ym3/qSwDQuxt4Q8ocgIe4G6h5IGTUflvjb7mdAyG6J4IGvGBp/g0XcyJIGUCUGLX0tcbm1qyvZf/2J6/vEwFAG0CQAQAAAAAAAAAAAAAAAAAAAAAAAAAAAAAAAAAAAAAAAAAAAAAAAAAAAAAAAAAAAAAAAAAAAAAAAAAAAAAAAAAAAAAAuACQ992Hnt68Nevbsm7ZlAEAUAeQmGdoXWz7mnwA6AIo2Wrr6eCYT4cCICaASmNPh4u0fB8AigBeE3N90B8AagAmisGWA0ALQO4+iwBSQwCgBGCcmOwXAFACMNMmgGcBoARgpU0AewCgBKDWJoC2JAB0ADxvE0BTAgA6AJbaBLCdHwFKAKbYBPAUAJQAjLAJ4KcA0LoSaPI7Y44UA0ALwHCLXxw4i0vBejeDVtubf0MOAPQAFG2xNv+3L+J2sOaBkMS97abmv7aAAyG6R8Ki0TV2CPzllpgvCgDSjVPBpdfdvmBh1lc1fcIXYr8kAAjHwgEAAAAAAAAAAAAAAAAAAAAAAAAAAAAAAAAAAAAAAAAAAAAAAAAAAAAAAAAAAAAAAAAAAAAAAAAAAAAAAAAAAAAAAAAAAAAA4H/+6dVnAoBDAMtiPclqB8Dg781a/GDW98CcmyoBcBYAXPWGnT0xDT8BgDKAnottrQnaVAwATQADXxVjvfs1ACgCWC/mauwNADUAI8VgPwOAFoDEdosAPiwBgBIAkx8AIrMBoARgqk0AqwGgBOARmwB2AEAJwBabAD5OAEAHwCs2AZxIAkAHwGM2AezmR4ASgOk2AawDgBKAsTYBzAeAEoBe/zD5K8DnAaB1KXi8RQBLuBSsdzOoxt78DxcCQA/AkEZr828ez+1gzQMhRZtszX/PBRwIUT4SNvsDQ7///SqPI2HaAKKccfNX/v65rG/jE4tuLIj7mgAgHAsHAAAAAAAAAEAdQEFZnHIBECqAbAoAAAAAAAAAAAAAAAAAAAAAAAAAAAAAAAAAAAAAAAAAAAAAAAAAAAAAAAAAAAAAAAAAAAAAAADgvxWUn5v1nZMPgLMCoHTOtuNGngp+dVYRALQBjD1o6cngd78OAFUAPao6bD0b3jYbAJoAHrW3HmQRAPQAXNhuD0BLOQDUAGwVg63XBZBf+EnDvQG4Qkz2FVUAtbH+zzABLLAJYAYAlACstQngcQAoAdhpE0ANAJQAHLEJYC8AlAD82SaAlwGgBOAZmwBWAEAJwDybAO4EgBKA0Sbnn74YAFpXAqstAngmAoAWgIo2e/NvHgwAvbuBS+wBmB8BQA9AYm7K1vhb74wAoAggii7fb+oa0LAIALoAouI7XjiYtjD8jn9WT+kbAUAbwMlySsuyvtJk994WAAjPBQAAAAAAAAAAAAAAAAAAAAAAAAAAAAAAAAAAAMDpLv9OnPoBIFQA9gMAAAAAAAAAAAAAAAAAAAAAAAAAAAAAAAAAAAAAAAAAAAAAAAAAAAAAAAAAAAAAAAAAAAAAAAAAAAAAAAAAAAAAAAAAAAAAAAAAAAAAAAAAAAAAAAAAAKYB3Oy4egAQAAgABAACAAGAAEAAIAAAAAAAAAAAAAAAAAAAAAAAAAAAAAAAAAAAAAAAAAAAAAAAAAAAAAAAAAAAAAAAAAD4tPoP2wm4UHGObeUAAAAASUVORK5CYII=;" vertex="1" parent="1">
          <mxGeometry x="445" y="162" width="36" height="36" as="geometry" />
        </mxCell>
        <mxCell id="v258VC3TH_JYletUSXbh-20" value="&lt;font color=&quot;#0066cc&quot;&gt;&lt;b&gt;Chunking&lt;/b&gt;&lt;/font&gt;" style="text;html=1;align=center;verticalAlign=middle;whiteSpace=wrap;rounded=0;" vertex="1" parent="1">
          <mxGeometry x="330" y="160.25" width="60" height="20" as="geometry" />
        </mxCell>
        <mxCell id="v258VC3TH_JYletUSXbh-21" value="&lt;i&gt;&lt;b&gt;Chunks&lt;/b&gt;&lt;/i&gt;" style="text;html=1;align=center;verticalAlign=middle;whiteSpace=wrap;rounded=0;" vertex="1" parent="1">
          <mxGeometry x="430" y="210" width="60" height="20" as="geometry" />
        </mxCell>
        <mxCell id="v258VC3TH_JYletUSXbh-26" value="" style="edgeStyle=orthogonalEdgeStyle;rounded=0;orthogonalLoop=1;jettySize=auto;html=1;flowAnimation=1;strokeColor=#007FFF;" edge="1" parent="1" source="v258VC3TH_JYletUSXbh-22" target="v258VC3TH_JYletUSXbh-25">
          <mxGeometry relative="1" as="geometry" />
        </mxCell>
        <mxCell id="v258VC3TH_JYletUSXbh-22" value="" style="shape=image;verticalLabelPosition=bottom;labelBackgroundColor=default;verticalAlign=top;aspect=fixed;imageAspect=0;image=data:image/png,iVBORw0KGgoAAAANSUhEUgAAAQAAAAEACAYAAABccqhmAAAACXBIWXMAAAdhAAAHYQGVw7i2AAAAGXRFWHRTb2Z0d2FyZQB3d3cuaW5rc2NhcGUub3Jnm+48GgAAIABJREFUeJztnWm0HUW1gL9zMweCkEAghChDGEJQIGBAkAdKQHgKyKQMCjIIiqKCCgpikCcQEFFUkCkBURAjgoCAyigICggiowzKEDADSYDM073n/dg55ubm9K6urh7P2d9atVZWzu1de3dXd1dX7QEMwzAMwzAMwzAMwzAMwzAMwzAMwzAMwzAMwzAMwzAMwzAMwzAMwzAMwzAMwzAMwzAMwzAMwzAMwzAMwzAMwzAMwzAMwzAMwzAMwzAMwzAMwzAMwwihVrQCbcBQYG9gNDAc6APMA2YALwH3AP8uTLv2oD+wM7AjsC6wNtAbeAe5Bg8tb51FKWi0Fn2BE4A/I4Oq7mgvAacA7ypC2RZmJ+AGYAHuazADmAi8rxBNjZagBhwG/Av3gGvW3gG+DvTKW/EWYzPgPpJdg07gZ8C781baqDYDgckkG3Q924PAhrlq3zqcAMwn/Bq8DeyVs+5GRVkf+Bvp3PyN9jqwRZ5GVJwaMIF0r8Ey4Mt5GmFUj9WAv5PuwGu06cDI/EypNN8jm2tQBz6TnxlGlagBvyK7gVcH/gEMyMugirIv0EV212AJ8D+5WZMjtg0YxmeBy2P83VTgFuBJ4E1gTWR6vy/x3vAXAV9JqGOrMxx4BvcOyiLgbmRx8D9ABzAC2APYBdkW1HgVuWaLAnQ1WoiBwBvob46ZwPFED64acADiB+B6A22ckR1V56fo564LuAIYpsjYFLjJIacOfC0TC4xKcir6YHmO+DftYNzbVlenpnnrsDHycNQenId7yDsF/VNiFrBGSrobFedZ9Df/Jp7yBgFPKTIXIAuOxgrOQH9ofi6BzHMdMn0eKEaLsin6IDksodz3o7+BDg7SuvV4guhzdVtCmb2ApxW5k8NULhe2CJiMk4ALI357HtgSuZGTcAuwT8Rv05B1B0PG7hjl9x2BhxPK/iRwfcRvc5FPtmUJZRstwNVEvyG+Gyj7CEW2tXjtFcJebgPRvQlbxjejo2gFKsoGym+PB8p+NPB4Ax5DbtSkLAD+qfzeMnEC9gBIhrYYNz1Q9rTA4w2J7AtFuw6rpyC/FNgDIBlLlN9Ct4ksJDicQSnI0K5DyzgD2QMgGTOV30K/DzcNPN4IP4c19G1c7fpXCnsAJEP7PvxYoOzQ4w3YHsn8E3L8ehG/1YEXAmSXCtsGTMaHEb/yZnQC2yB7yb4MQbIDrRnx+w+AaxPIbVXuANaJ+O0c4PSEcq8DDo347Ulg64RyjRahN+IWGrVNdC/u4JJmTFRk1oEHsJRV3ZlE9LmaD4xKIPPD6M5Y5wZrbbQEV6HfrJfi94l1skNeoy1DAmDWTsOIirMH+rl6EUnWEpctke/7KHldWJIWYzmboQei1BGvvqhvyQaDgEsccpq12Ui2mj4p2lRFHkE/T28AH4oh52AkDZjrehrGf4lz485F3IZ3YcX+8QDEjfVMxG8gxOvtWeAjWRpZcvYkXjKQ24FDWBEW3MgHcAySg9F1/BLgvXkYZFSHdYDX8Lth46SoTtJuRWYl7cjl+J2rxcBSz2O+k5s1RqUYQzpZaNNoi4ELaD9notVZ4f6bRfsDlqrdUNgf8Q5Le+BNQLLZxCku0r1NB46lvfw8hiKLfmlfg0dIx7PQaHE+gOT+S3Pwnbxc9rbAnxIc/zgtmsyyCQOQKMC0HwCP014PUiOAEcDvSG/wvY282UCctj6BJKf0kdGFZC5umQi2CMaT/s3faEfnaIfRAuxKvJXlOO2yHrIHAN/Gf91hAbKQNTB9cwtnBNmuw0zFcgGWkl6Ue8FrIySd9x+RVNSNAdWJfKffC5wNvEz04FuGuBb3ZAPEZdU3H/4UJGVZK7mBX4du8ySk3t8/kcrMjf+fg7j2Xo4UEdVknJebNUZTasB2wFnAX4C3WPkCvQH8HjiRck93m/n5H4g++O5T5O2MJBHxfas9iAS9VJ2d0R+Cz7CqW3Z/pIJzd9ZAcgBEyVlEC2UCqhIdwJH4V9z9E1Ieuirci26PlhC0AzgK/0XITuTt6PJWLCsduGsy7ukh71iHrJvTUtyIx07IFM337da93YReFKIsbI1M96PseAV3ibBByFTVd0tyDlLnoF+K9uTB0eh2+bruduD2J9gjDcUNN4cBCwm7+RvtDSTldtlxVbk5I6acTUhWqvwlqpN6fBArr6v0bItJ5hm5E/onxbNY/EXmfId0bvzubT7l95lfh1XXNrq3eegJSXsyDj3HfVS7ExgdbE22nIduw/kBsq93yP5igGzDQZZpsecAW+VnSiJOQrfhF57yOpBzOsMht2frBK4hOuFGkWyC/pkznbDdoQ1YebegZ5uNhWNnwo74f7/6Bte8SLm3DvsgdQWj9O9CvA59GQz8GP8gmFnIGy9JgpOsuBld52NS6ONMRx8/SaEPoxs13Cu6dWQf+zTkTd5/+bGDgN2QAR7ngVD2Pd290fV/hOTuqaORKb7v7Olp5JOiaFxJQP5GOq67A9EjPZdS/tlkpTgU/cJ2IcExrpXw4Uj0lmvWMCJ1C9LlNnQbPhMofz+SBc/8luL2w3ujr2l0AR9MsT/XmLwzxb7aHq3abhd+07rewM8VeXXgR2kpnhGbIyvZUfr/h/AotX5ISew5Sj/N2iJkFpV3lNyJDr1+mXJ/NeDPjj73S7nPtmRL9JN8QQKZ/dDTRb1O+d1hv49+XtJKULke4hDkG3Y8FXFAyiNabgh6Itb5ZOMBuh36eXmJ6vlPlI7TiT7B00n+phmLvqc7Nkjr7FkD3btvMekWEhkD3K/0F9UeQ1KeZcnFDh3GZ9i3K1vzqRn23RbcRfTJPStQ9kOK7G8Gys6D49AH340p91dDvn2nOPrt2bqQoJws1la2Qt+9eI1soxzXA95R+p9Ddd2pS8HrRJ/cHQJln6bIvjpQdh70Av6OfvPtnkG/AxGHLN9t1vlIuLJrsdYH167FISn2FcUpDh0m5aBDy6Lt/Q8OlP0JRfbvAmXnRZKIt7QYjjgE+YYdv444IIWus+zv6OfBFPqIQ1/geUWPTsr/SVlatEWWUL/rjyiyq7SN4/LtPyHj/ndB0mP5PATqyJrCmIR99kMW2bSbbruEspOwr6JLng+jlmMu0SfVx/e9GUcqsm8KlJ0nG6JPx2cSPlty0YGEzPrWMuhEkpsOXVWkyqkOuRODrEnGHx06HVaATpVHc339eKBsbfX4okDZeXMW+uDLy57VEFdZX7ftecuPi7Ntti7uhbciwrxHoVeEeh05P4YHWvRVSDXcPugLjMcHyC6C1dBX55ciPhV5sRlSkMTnIVBHvqVdZdCvcsj4erqmePFjRa86VkTEm08RfTKXkTw01eU5luYeel4cjm7TXQXotDvwlEOvKF2bldsaQ7mdb9YC3myiV6MtQD7ZjJishT6tehT/baVR6FPIp9JQvABq6L4NdWCfAvTqgxQrne3QrWdbAvwQGQMg9rkyKu+bh0EOvoCu46+KU62a3Ih+Qu8gfmrm0eiZduvIYK0q70d/Q77Aqkkv82JtpGiqlt6sWXsT+DzufBB/zM8Uld7os54u2qcoSyqMwj1oXN+O/ZCEGq7glqlUPz/+Veg2FvmNDPA+4G78HgKNGyfqt6WUK1PROHRbrKqQJ3GrvD4HfA+JEDwYSVgxkfhZbw7Py6AMGYb+oHsHWUkvmgPwz+gc1coYwXkTus7HFqda9XgXelhwGm1ybtZkzzfQbb2yONVWoj8Sd6H5e7haHn4OScg6PVnbMRI97DOkPYaUkm4V4njKJfXCy4L1kQo9vm7FdcQduaxedhPQdU8Szt7WjEVP+ZykLUEGYKvxcXS7H6B8N85YpLqT7zV8GMkbWTYG4Q7bTpKivK1ZHz2hR5J2Uq4W5IcrBVoe0XK+1JD1m1fwu4ZdyGfce3LXWOcodL1vLU616tIfWc323VuOam9RzjTXobwXPV7+Vcq763ECya7lPCSRTP9VRRZCB+4ajXsVpl3FGYz4kCcpctGzXZqv6rlRZMacpLwL/8Cinu1l4KC8FY/AqgrlwEjEYeQiJIZgMrIFeA4S+z8Sd7ntrXPXOnvi5MwrWybkC0hnZldHiquW4bpei65nlR3QKsPBuAdLK+KKfbiuONVWYTP0rMcz8K9mtAyZ4RX5mWdVhUrCveiDpSzTxjTpjbuaclncU+PUPVgT2WLzDTt+i2KrHX/bod8lBenVVrjKbWedSLIodkcffGVwT3W50D7GyjpuSrKw4xdwhx1nwQDa8zO0dFyGPkC+VZxqmeKqnXd0caoFVfepUrVjLRdlHbgnZ33aEle57ayKSRRNmd1TXdWPf+44vg+SKl2Lx2/WliAvhDy/v+9z6HRAjrq0LScTNuCqyvnodhdRIHUw+k7FAuI/kAcjO0G+YcezkJX4XmkY5GAbh37/pjx+DC1LH+CfJJtyVplB6O7URbinXqroUwfOSCBzFPB7h9xm7VkkY3TWuCJcT8tBh7Ynr5LSZeMYdLtvzlGX0WRb3Wcf5I3q+yC4FdgooF8XQ9E/Q+fSmjEqpeN29IFwZHGqZUYH7niKPN6C4E6nfXAKffRFpve+1Y4XI58TWVU7/qqj/59l1K/RjZHojifTiJ9yrEp8gOLdUw9S+q8jJbjTjFhcH1nw8612/AaywJj2bDDOZ2hoCTwjBheiD4BzilMtU36JbveJGfbdH31qnmV1n+1xJxht1h5F/PrT5GOOPv9C+cK2W468y22XhSLdU7+l9FtH3tRZ0gg7ftWhR7O38mTS3SZ2fYZ+OsW+jAiOR78IvylOtUw5E93un2TQ53D0NGDvkF9Z7UY1o4WKPs1ao5pRGtt1W+CuKtRKGatKSQey6q9d9D0L0y47BqAn31hG8yIdIVyj9FdHfDTyZkQMvZq115CU5aH8wNHPd1Pow3BQZLntIjkEffDdnWJfO6Kf4xcptrrPh4B/NNHL1e5BUp4nZU10L8ZFyIK1kTG/Rr/QWZfbLoo/odsdWowV5Lv7r45+/jeFfkLpQN7qSaodX4N/teMGn3fI/3VCuYYHI5BYgKiLMAtJstFqbIu+PfYvwr93j1Tk15HgnDLRCDvWtombtdlI2LFvFaZewBMO2XuEGGTE4//QL0LVyofH5Up0u08NkL06sp8eJbts1X26sxnwO/w/C54HPurZ14ccMp+mNT9DS8VA9O2hpcBWhWmXHUOBt4m2ew5SeSgJZyty64gvRtkZh6wD+T4I7sSvPPsNDnlVK19fSbTS5HWKKbedB19Ht3tSApkboW+zzaKc1X2a0ah2rD0om7UlyMwxTrh1K52vylJDimdoF7WIcttZ0xeZukbZ3IkU8PDhN4q8qr7RhpAs7Hgm8cKOW2HGVHm2Q18Ye4lit6yyYl/0wfcQ8d1TW/2bdlvcOyjN2uPoeRgLXTMJSYowDHlDbI/UnxuOuNrORaZBVWIqsDGSwKEZgxGvtYeQ7+ftEJvHIG62VbX7ecTnfZOI30cgefWeQgJsxrDC9hFI9Nys5X97E3o14kOQmICqMg2J2nsOGfdxMyoNQxKcjkIiM9/p8fsSZLawf8TxHcinwrXImtUY5GE0Ftgc8aRciHgsZs42iKfSU+jfQPcj1WCT7pMWwfrobqtz0afMS5A3xDeoVvWhLdHj9GeiexAuxL1gdkNexuTEAKTQiraN3KzNR9yKe+Y9iOM38Q/06/QksquVSbLRUbjroDdrC4CfUp0HwTfxtzHK7oupzoPgR6Rjd9QDIsuEG0UyAqm14Fvt+DVkRtT982qHBHKi2o1I3EEwHcgbX3vyxGkzgAPTUChj+iOOMGkN/mmk41mXNYORN30WD4Czc7SjKHbGHV/SrD3AyqHQSWIUotpS4CwCQoxXJ9lbX2tnJVUmRw4j/ZtgfK4WJMOVtSZJm0X7RLd1IOnWtXDzZq0TKW23LrKeFPqy7dluJME16IdkaUl7QNQp97bGaiRLIBGnnZ+jHb6sTTLHlzit3WrhrYFkXPatZvQO7rRpSdsDeO5iXZ2RIo32WR9lcqJGsuozPu2o3KyJTx8kG01WNnfRnvnvRwK/Jdvx5NNiO3Z9zkPoi4jv9HWIG2TcYo4LCAupzAIfu19ghd13Eb9IxXzK5wd/JvHtfhq4BbH7XuJ7yc0kuWtx1dmDdMraN9p05F67DhmDL3kce6xL2TVw38TLkGCSUU2O7wXshsRMu5RJM/Y8lKHoW4B15NvsMmTvtSe9gA8Tz1HkDxna4cvm6Blq6sgq/gXAe5oc3xfJdfeYQ0YdyUvYrvQGvoheFCXO/bIrzROWjkLWEVzeitNwZD52RcdNR1Y843AC7gWN3WPKypoJ6HpORRJcxOFLuO3eNUXdQ/gZup4vES+4pYaMHW0bq5PmL412YjCSes1noW8JMjuNwy64X+DfiTq4N/oT6m38L+Dh6IMiz8IUUQxAzyM/G/8KOkcq8uqUI+/gergLdfhO27+hyKuTfQLQqrAVMo133fxdiL+AD1siC4pRMt8kwgPY5cv9CU9FGmjloBZSfC5+V7rmKBdNFxMVmfORHYciOQ594H0ggcwacJsidxqtWYEpKUehj72kiVpdW9m7Nv6wu5PARcj0tRmPIp5K9QTKDEV8wKMG/ERkMbEo9iZ6Sv4Q8T95ejIMcSoaEPH7Fct/L4pPIj7lzfgNUswjCaMRV/EoB5QLkWmqIWswUTtD85D4lDcTyK0hcQfbR/z+Q6RK80povsih+fFc+ffK2kK3K8u0DeTTPhZo98MlsKHq7Xrvs74yJyqyH2r8UffpWFREGMiWTwhlWvH3wexORlXtLhP3BB6vXYP/3uvdHwDat/iUQGVCjy+COlKoIYQq2j0bWaMIoYp2l40s77n/hjLHXZAJrVlWxZpnNdrX7jLIaHdCF0tjXYPunfRMVNCdDcJ0CT6+KIYHHl9Fu9cifIeiinaXjdBzOEL57e3GP7o/ALRsLaEOO+MCjy8KszsZVbW7THw48HjtGvx396l7jra/El2j/AgkwUU9gSLrAnspv1+PpOYuil2J9vI7kuTOK+ujF3e4jmK/lT9KdMrzIxGf/ySMJnr7CWT7c3ZC2a3GRkT71/wvsoWeZMu0hl5p+OFm/7kb+raEr0dSg8sUmQtx+CbngMsRKGkik0mKzDI4An2WaP26SOb/UAPuUOSaI9DKuByBLkko15XqvmmS0t7oWWHewa/oQRxFyuAK3B/ddfItmgcAabgubBly5K2L7go8BX9X4NMUeXXEK9TwcwU+zFP2aHTX9khXYJCMPZpCM9BTHHfnRNxBD6HfOWlxLrqe04j/RjwJd1TWLinqHsLV6Hr+m3glwzuAc9DjPpaRUp66CpMkGGgp8IWY8nfDHZo+XhMwCHel1E5ketssrt0nLLZMFXfWQX9qNgawFgY9jnhZlO7I0A5fNsMdDrwIcd9tltizL1JbwFXoso6sebQraYQD34fE6zR7e49GHuZabYs6EtXqTA+mBYk0e0Pchlzcu4mfGGMB8d4seeJj90usSAhyN/ETas6jfCGx44lv97NI1qTrkIe89unUvb2JRB+2I2knBJmBvDyvQ+69lz2OPSau0lelqHCQIjlSI3vf/SNysyY+vckuD2IdeStVITNy2pQtJdiVPsr3w10vL2krc3LMgWSXDLXM6bEHk+5bqns7MUc7ykAZk4Lej3yuebEa7mKPvu1MXyUKIIu04KfnakEyLC14GGVNC34DAVvONeSmdS0Uudo0kifWyJO0C4NMpRqVhbMsDHJOjnYURRkLgywBvk1KcRmbI7MB39JF85Ftj7XTUCIH0ioNNg9JsFKV2u5ZlwbbOD9TcqWMpcG6kPwbm2Zh8PsQX4F/KAosZkWRzKrc+BBeHHQxEkd/ClJTviqMxl0c9GXl94W41w/KkAMxTYoqDqrNxJ9AEn7mtru2LuJ4cDCS/HNvpHpw0S6uSXFlyP3a8r9bG3Hk+TiyXrAXUpG1qna7Fp4anmjDECew/VlxvbdFFpd6ob8U6sgedtWpIanUXsX/rXw98O4IuUc4jr99+d8NRMqCfxTxsj0YiWWpSvHd0rIduhPFS3iWVqoI+6EPvIeI/w3pSir7NCsHn1WNbZHVdJ8bv47UTNA8P1cH3lCOX4K/K7rhQQ331l9ojrwy0hf9k6YTedv4cIMirw58Pg3Fc2YIsp7jcu/u2WYidREj/e6Xc45DzvdTtcZYBdf0687iVMuUU9HtnphA5rvRv4tnUZ31kT7IDRy3/Fn3N/ZFdEu7pbARsoYSJWsGsGZaBhmrMhBZkY26AEuJjpmvMuuiD+w5JK/l911Fbh1JSV12xpGsWvKd+EXMuvxsjgs3xdA4m+oP1iRouQrqyE5GUqr8UN0cifHwvfH/iSTw8MG1ZvIE7s8HIwDX9KtK01UftkVf8PwX4QueVfusWgupD7kYvxt/NvIp5etmG2fXZLcAe4wYtOKClYsa7pXs/VLqpwoLqx3Iw8oVAt+zdSJee0m3305wyJ+cUK4Rk1bfsorCFeeQZkGPsm+tfgj3W7hZuwdxiEvKWuhh8wuBDQPkGw564U5goSXzrCoDgFeItnkZ6XuRuZyrvppyf3EYQTKf+9dIJ5z7h45+/i+FPgyFz6FfgDLk68uC76Db/eMM+lwXPWnIHPJLFLIa4oarrfs0a/OWH9c/BR1Gobvzvk77RE8WwprI3mrUBViMJHJoNTZA35+fTXZxG6cr/daByzPqt0ENcZlN4r47mWj33SRoGZPriHuvkSE/QL8AZU7aEcL16HZ/McO++yHl36P67kSvIxDC+0mW7egRYKeUddnH0edfsJJqmbIF+vRrGnqB1KqyE3qY6TOI11uWHKj0X0du0jQH//pIPQpXksye7Q3E+Sbt2gUut+su/N2uDU9uR7/4ZczXF0oH8Ci63R/JSRdX1GFUhRwf+iLuu64Mzz3bYsR9N6siNV9z9H91Rv0ay/ko+gX4G61ZsUar/lNHklbmhSvvwGusGifvwz5Ilmrf6f6tNE95nhZD0d2u5yIzFiMj+iCumtr064OFaZcdg9Dz0y1G6gLkyU8VfepICitftkFy5vve+H9HYumz5gqHHt/MQYe2xpXs8priVMuU76HbPaEAnVy5BxcQf9V9MMnCdGcRL0w3DbZ16Pcv0tleNCIYitT2i7oA80l3m6csbIKelnoa8cJVs+Aril514BeO4xthutp1bdYaYbp5hte6KmRVIVFupbkc/QJUIV13Em5Ft/uo4lSjN/BUhF6NT7KoDDrjSFa/4E6al7LLkk86dLonZ33ajm3Qp1+vErboVFbGoQ+8xyl+wdOl42OsrONmuB9qzdrzFBN0NAA9keoywuIJjBjchz44DixMs+wIebvmjSvu/ihkuj4B/yo7byFhukUFG4136HdxQXq1DQejX4B7i1MtU76EbneZKvRuhh5/PwPdbTvqzXopUu25KDZA4geidMzS7bot2Aypl/4jxFd7MpLhZgLy3TUS9/Rr69y1zp4hyOCKsns+EglXJi7Af1qvPdTLcF2vRdfzy8WpVl2GIAVJniV8oFyas+55cTG63eOLUy2Sd+GfjKNnexk4KG/FI3C5XT9L9m7XLcUApMKQ75ZPVHuLYqeHWfFeqrvg6cqOE9XmIbs4ZdlHj+N2vVdh2lWQ4bhPqG/7Sq4W5IfLz/6TxakWSSNM9xX8rmEjTPc9uWusczS63rcUp1r12AH/MsuutoTW9LneH93uByhfmOlYJPzV9xo+DOxYgL4uyuh2XVk2Rdw107z5G+3vZBfxVQT90MuZdwJjCtNuVdZH0oQlqYJ7DeV7kDWYgK77BcWpVi3WBJ4jm5u/0VqpUq2rnPmVxam2Ev0RXbXqy642k3KWW3e5XU+nOLfrynEl8QbDM8D5yHfXwci24BWIj3uc4z+dl0EZMgw97v0dJCdf0RyAPkvxaT/KWfc43ISu87HFqVYttsQd2fUcUpY6ir6IM4yrnttUyrsqHper0W38emGaCe9D0oz73uTa58FS8vfp16iC23VlcD1JbyP+9/so3MkhquyQMRY93dUL+FerSYu1gUvwD9N9EynG4qoq9Mf8TFGJ43b9P4VpVzEGo2eLeQTxCfBhC/SZwNNpKF4ANeAh9JtknwL0aoTpat6IzdoSJFf+Wsvl1HAn8tw3D4McfAFdx18Vp1r10J76y/CruNodl5NJFbdmPo1u010F6LQ7+ttQ07VZodAxlLuq0Fq4E5tsWJRyVURLW+1KEKHRBym2ECX7+ADZRbAauj1LSf6wTEKWYbpXOWQUucbxY0WvOlKExfBA2/oLne79RJFdxlVlje+iD7y8ypmvjlTL8Q3Tnbv8uDhv7zhVhYalY44XW6Knl5+CPKgND7T94Q0CZX9GkX1ToOw82RCZWkbZksc+eQeyrZWkmu4V+FfTPdUhd2KQNclwuV0fVoBOlUf73guNntpLkV22OvUav0YfeCdk3P8uyLaWz41fR8qRJ/VG7Id872sPlu0Syk7CvoouddIvcNI2aFPJIYGyD1Fk/y5Qdl58EHd1n6zKmW+AuOH6uu9OQRZ3Q2+Ijzv6eSiFPuLQF9le1R5GVt0nIVOIPrGhwR/fUmRfHSg7D3ohMQzaTbB7Bv0ORBaztM+OZm0+kt/fd9tW405Hn4ek2FcUpzh0mJSDDi3LXUSf2NB66X9VZH8jUHYeHIc+8G5Mub8acCj6Q7lZ60JSjmWRdWgrsq0q5GI9ylPmvCXRglpmkDyCb0f0qWtWVWnTYg30+IbFSPRkWoxBwod9bvw6ksU36+pK2m5OHdldyIpJjr5PybDvtmAU+gm+MIHM/kjNvyiZUyj/gs2F6Ofl3JT6WQ8Z5L7VdKci2Xvz8Hcfgh4mnlWRl+0ot1NSy/AM+mA7zkNWb2Q6qsm7KC3FM2Jz9P3m/xCe26Af8vbyraa7CDgvhf59OdGh1y9T7q8G/NnR534p99m2aKv1jfZ93E4W78YdhbaAcP+CrLkN3YbPBMrfD3jR0Uez9lsRzcmMAAAGlElEQVQk83IR9EavDJR2oddDlb7qVGsbufTUiJcD8A3gDKTyT2OleU1kJfwSYGEMGWlNnbNib3T9HyH5tHs07lX1Zu1pJPy1aPZA1zOtUu8DkcXFqH6W0jyOwQhgLP7upb5//wLlztDSB901ugv4QAK5gxEfdm01vVmbBXyR7PwMknAzus7HpNDHmY4+fpJCH0YTXNFuIW0O5Uoo0YyT0W34uae83sj6iW+VnaXAZZQzjXrWabhGIIuKUfJnE+6gZiiMJ/2bfz7wkTyNSMA66DUQ5uG3dlGlarq+nIduw/kBsrXo1DoyIzIy5lD8vdCi2uuUf88f5I2r2fGtmHJGIrnzfc/Ti0iOxSowCNkJibIlaSpuV3WfZ7DqPrmxI243WK11IUE0ZUiO6WJr9DRar+B2rx2EvBl910XmUGw13aSkXYyjA3Fq0mTukYbiRnw6gE+hR4U1u/HvoZxFJKK4F90m7c3cgTjk+BZT6UQcgKrqxtqB7uxVB/b0kHesQ9bNaSluJGNbZHX2QVbNPfcacDuSq62se/wdSDqpnh6IB6EPvPsUmTuTrITag1Tjs8jFzvhHSg5g1dmOy+16EcX5PxgRdCAXrqyMBL6GOCZ1X4XvQrLg/gk4B3c5822ayN4A8XZMEqZ7GOV3g/bB5fU5CQlpfpGVV/fnIg+IK4AbHDLOy80ao/KMQ+rY+b6Vm7XLesgegITbattUzdoCJLy36vUQmuHatgttUyn3i8YoCRsCfyC9gfc2K9Jo1YBPIKW+fWR0ISmqswiUKRPjye4BcHSOdhgVZSfilyaL205aLntb5HPB9/jHaZ/iFAPwLzUe9xxadR9D5UBk3zntwTcB+T71DdOdjqxot9PAHUqy4CZXewSb/hsK25Oew1JoW4yUoi5zrEMWDCJZwtK47U4kNZthrMS66IU6mrV5nn8ft91KNSsdpcEV+J2rRei5Fpq10NR0Rgvict2tI15230Mi+Bor8P2Q6rln4O+807M9S/ljHLJkT+Kdp1sQZ6pGcFMNGA4cSbz1lSXINTMMQIqPukJrb8QdTbcakp3I98afjRTjbHe/dJcT1BTiJQnZHz0QqzHLMgwAfoY+WC7Gz9nmyw55jbYM+ClShrvdcb39X8CvfNgWiIOWJnNUSrobFaYP+tvibpItGl2uyKwjGXttGroCLVvvPOSG9mU39F2XCaFKl4lWcgfNk3FE54PrRCL7nkkgdzAS9LRWxO8/AK5NILdVuYPoT6yziR8+3ZNfAIdH/PYkcn2NNuZcot8Qvw+U/UNFtrV4rZOwEPDtFdldSHXklqCdHEXSZHPlt9B6g1WpV1hmHkWcoZLyGOLV2YwaLbTdag+AZGgLcC8Gyg493gg/h3XkUyyKllmAtQdAMvoqv80LlD038Hgj/BqA+G9E0T8F+aXAHgDJmK/8Fpp+rKrZecpEGingtOuQxgOmFNgDIBlTlN/eHyjbasyHM5awHa7VgS2V318LkF0qylTsoUo8qfx2AHA6slqchIOU36YhlZEMYbuI/x8O7ICUhk/Cx4ie5s9Bwo6NNmYk+jbUpxPKHYue4uvAIK1bDy0C8A8JZfZCL1R7fZjKRqugDZKZ+CeQHIRexGM+7sKo7cbp6A/izyeQeb5D5qHBWhstwanoA+V5YNOYstYG7nfIm5Si7q3ChuhhvUuQaL841IDTFFmNB7slBzEACe115QKYjaQpj4rYa+T5e8UhZzEy2I1VuQS3Z+BV6Knit0Ai/VxyTs7EggKxWIAwjkWSUbiYjsSjP4Us5A1BBt0+wMYxjr8Q+GpCHVud9ZHPsTUdf7cYKb5yL1JSrANJlLoHUlvAFbz1MhIJuDhEWaO1qOEuJBnansBdEqzd2Qf/+gg+bSHVqjJl5MhqZJePbiqwUX6mVBotQCu0HZGjHUYFGUay8lxae40WCjrJibNJ9xosBU7M1QKjsgzAXaIqbruf1i/kkRWfI53Eq7OxSsCGJzUk8WTS/PRvIcVAzEU7jJHAXSS7BsuAiYg3oWEkog9wPJJtdhnuQfcCsso/qAhlW5gdgMnEqxs4DUnJNroQTQvCtgGzZx0kbfdWyJZVfyTkdyrwbyR/4KuFadce9EPSsu+IRPmtgzykZyLbew8icQNJ4zcMwzAMwzAMwzAMwzAMwzAMwzAMwzAMwzAMwzAMwzAMwzAMwzAMwzAMwzAMwzAMwzAMwzAMwzAMwzAMwzAMwzAMwzAMwzAMwzAMwzAMwzAMwzAMw2hT/h98JyFqKf56jwAAAABJRU5ErkJggg==;" vertex="1" parent="1">
          <mxGeometry x="643.75" y="162" width="36" height="36" as="geometry" />
        </mxCell>
        <mxCell id="v258VC3TH_JYletUSXbh-25" value="" style="shape=image;verticalLabelPosition=bottom;labelBackgroundColor=default;verticalAlign=top;aspect=fixed;imageAspect=0;image=data:image/png,iVBORw0KGgoAAAANSUhEUgAAAIAAAACACAYAAADDPmHLAAAACXBIWXMAAA7DAAAOwwHHb6hkAAAAGXRFWHRTb2Z0d2FyZQB3d3cuaW5rc2NhcGUub3Jnm+48GgAACXZJREFUeJztnWtsHFcZht/Pa5vS5lIVo9B4NxXKpYALluJCERRBVBBFBZWooSpUSUMM1BERgiZQqY1UcQkKCSVIFQVcpEIMrVJRiNRWpfnB5U9cCwyhP6BRDPgydgi04LjGcdJ4Xn6sJ12vx3uZPZe5nEeyZM/snvN53/f75pyZObNACsnnV3evWbO6F0CT7VjiTs52AKrJ51d3i0gvINevXLkyPzU19TQA2o4rrqTKAK+JfynzNzoTVCY1BggRP8CZoAKpMEAF8QOcCZYg8QaoQfwAZ4IQEm2AOsQPcCYoI7EGiCB+gDNBCYk0QAPiBzgTzJO4EyUVxL8A4MHy14vwEQDji1tid6GQz/zJokT985XEF+EWUp4uf4/v4xQpm+BMEEqi/vGmpqYNWBzzLCkfHx2deGqp93med2pujjcBmFi8129ft25di9JAE0SiDDA66t0LYF/JpgsivN3zvGervXdiYuIkKR/Agkogx3K51s1DQ0PnVceaFBJlAAAYGxvfi6IJLohwS6XML8fzvJLDgRzL5ZpvHR4entUWbAJInAGAoglyOXbWI36A53mncrm5G534RZptBxCV4eGJF6O/95/DCkNJNImsAA51OANkHGeAjOMMkHGcATKOM0DGcQbIOM4AGccZIOM4A2QcZ4CM4wyQcZwBMo4zQMZxBsg4zgAZxxkg4zgDZBxngIzjDJBxnAEyjjNAxnEGyDjOABknNgbwfX/S93028nPkyJHflLd73333H2i0XZJnSV5p43PRTSwMQPIhACttx1GBFQD22g5CB9YNQPIqkj2241gKEQl+/QLJa23GooM4GOAXSMYaxRaEPIEk6Vg1AMl3Ani/zRgqUZL9AbeQ/IiNWHRh2wA/t9l/RL5DMjVPFLFmAJJ3A1hjq/9qhGR/wFsAfN5gKFqxYgCSzSRjezytIH7AAyTfaCIW3diqAD8CcIWlvlVwJYCv2Q5CBcYNQPJqkltN91srNWR/wGdJduqMxQQ2DHDURr8ayAE4ZDuIRjEqBMlNAN5lss96qCP7AzaRvE1HLKYwbYDHTfZXDxHEDzhI8jKVsZjEmAFI7gGwylR/BnkzgHtsBxEVIwYgeRnJr5voKwoNZH/A/SQLKmIxjakK8DMAiS2TNXA5gG/YDiIK2g1Aci3Jzbr7iYqC7A/YSvJGVY2ZwoQBjgJQ9inHGAHwXZKJmuJqDZbkxwBcp7OPRlCY/QFdAO5U3ahOdBvgUZ3tN4IG8QMOkFyhq3HVaDMAyf0A3qCr/RjzJgBfsR1ErWgxAMllJGM7N9aY/QF7SK7T3YkKdFWAJ1G8hSqrvA7Afhsdd3R0tKKOQbdyA5C8juSHVLerCgPZH3Cb6c+ho6Oj9ezZyScLhfwjqFFbHQbIyrSvFg6RNHLDayC+CD5az7ehKTUAyU8BWKuyTZUYzP6ADgCf0d7JAvEDajOBMgOQbCL5fVXtqcaC+AH7SGqdDU1Pv9Qugo2L97C7UGh/GBUqssoK8D0UV9A4FnIVNK8qGhk584/FX4l3ibsrjQmUGIBkG0ntpS4qFrM/YBdJrWdEF34lXjlLHw5UGeCXSMbqHls0w8DtY1FM0LABSN4AILZXwWKQ/QEfJHmL7k7qNUHDWRv31T3PP98PMh7fED87e+4n69evPXT+/PmLuvsi5TmAO0L2dOfz7XOeN94DgA2lB8meOI38+/v7cccdt9sOIxGQ6PW88Z7IBpif9k0DeL3CuCIzPf0Ktm3bisHBQduhJIkfRh4DiIgPYEphMJGZmZnBjh2fduLXBwG+0NAgUEQ+qSqaqMzMzGD79m0YGBiwHUqSIMBdY2MTDzc8RPZ9fwCWFnsUy/42DA7+YdG+rq4u7N69x0JUSzM1NXVi587PfdlEX6TcDGB32C4R6Rkd9XoBBRdt5tf6eTC8yKRS5nd1daGv76dYtmy5yZCqMQegS0T+rLujQqHwYcA/isV3Yl/K/GBDw6KJyGkR6Wu0nXpIoPgA0Bs38QFFl23n1/tPwsCS74SKPwlgvYi8pLOTesUHFJVtEbkoImHHG6UkVHwA+GocxQcU37jh+/4IND32pdqAL8bivwjgHSLyqq4Orrnm6rf6ftOfULwVrZQFA74wlA7cRGSLyvYCXpvnJ058ALhHp/gAMDJy+q8Avl22mQB3VRIfUG+A3wP4nco2q5X9w4f74iz+MyLyrImOxsbG9wL45vyfFct+Kcovlc0/+fMMFFxoqlb2Dx/uw/Llsb0H5VUAbxeRkyY7XbMm/y0Af6uW+QFarpWSfIjkrkbaqCXzYyw+ADwoIvE6ExWCtovlvu9PIuIDoGst+zG61l/OvwBcKyKTtgOphrazdyKyM8r7UiA+AOxNgviA5vv3fd8/CWBDra+vZ8AXYwOcAHC9iMzZDqQWtJ6/F5HNAGq6HScl4gPAF5MiPqDfAH+pZRqU8KleKU+IiNJpsG60p9L8SuGXAbSG7a9X/Bhn/zkAbxORYduB1IP2S7giMi0iB8P2pUh8ADiYNPEBg4s4fd//N4C24O8oZT/GBhhHcdr3P9uB1IuxmzhEZHvwe8rEB4B7kyg+YHgZt+/7J2ZmZjqjDPhibIB+AO8VkXgsPqgTo7dxHT9+/M677tqaJvF9FKd9iRQfMFgBVq1adUVra/MzCPmSqISKDwCPikjI6pvkYOTTjSo+EGsDTAPYICKnbQfSCNoPASkVHwD2JV18QHMFqCR+Z2fnhccee7y10hm+GBvg7wA6RGTWdiCNoq0CVBJfBP0HDuzfnFDxAWB3GsQHNFWAauK3tp67eWjoP1O+7/cDeHdoYPE1wK9F5CbbQahC+adcq/jA0quKYiz+HICNIvKC7UBUofQQUI/4xW1yWkR+vPB1sRUfAH6QJvEBhRWgXvEDylcVxdgA/0Vx2qd1gYdplFSAqOIX98tFEfnS/O8qwtHFA2kTH1BQARoRvxSSzyG+j5c/A+BWEdH+bB/TNGQAVeI77BHZAE78dBDJAE789FC3AZz46aK5UGh/onSDiPxxdNQL/baLtra25S0tzb8C8J7yfU78ZNIM4BOlG3yfl4e9cD7zn4ITP1XUdB7Alf30UtUATvx0U9EATvz0s6QBnPjZINQATvzssOgxLiKyoqWl+RjcaD8ThDzHh+8LuyjnxE8nNU0DnfjppaoBnPjpRgqF9mrLmgYAvLLEvt+OjY3vUxyTwyC1PMvvhgr7XlYViMMORheHOuKHM0DGcQbIOP8HPVvHc8ywl+IAAAAASUVORK5CYII=;" vertex="1" parent="1">
          <mxGeometry x="820.5" y="162" width="36" height="36" as="geometry" />
        </mxCell>
        <mxCell id="v258VC3TH_JYletUSXbh-27" value="&lt;i&gt;&lt;b&gt;Embedings Model&lt;br&gt;&lt;/b&gt;&lt;/i&gt;" style="text;html=1;align=center;verticalAlign=middle;whiteSpace=wrap;rounded=0;" vertex="1" parent="1">
          <mxGeometry x="632.88" y="216" width="60" height="20" as="geometry" />
        </mxCell>
        <mxCell id="v258VC3TH_JYletUSXbh-47" style="edgeStyle=orthogonalEdgeStyle;rounded=0;orthogonalLoop=1;jettySize=auto;html=1;entryX=0.535;entryY=0.036;entryDx=0;entryDy=0;flowAnimation=1;entryPerimeter=0;strokeColor=#007FFF;" edge="1" parent="1" source="v258VC3TH_JYletUSXbh-28" target="v258VC3TH_JYletUSXbh-70">
          <mxGeometry relative="1" as="geometry">
            <mxPoint x="837.5" y="313.62" as="targetPoint" />
          </mxGeometry>
        </mxCell>
        <mxCell id="v258VC3TH_JYletUSXbh-28" value="&lt;i&gt;&lt;b&gt;Vectors&lt;/b&gt;&lt;/i&gt;" style="text;html=1;align=center;verticalAlign=middle;whiteSpace=wrap;rounded=0;" vertex="1" parent="1">
          <mxGeometry x="808.5" y="210" width="60" height="20" as="geometry" />
        </mxCell>
        <mxCell id="v258VC3TH_JYletUSXbh-32" value="&lt;i&gt;&lt;b&gt;Vector Store&lt;br&gt;&lt;/b&gt;&lt;/i&gt;" style="text;html=1;align=center;verticalAlign=middle;whiteSpace=wrap;rounded=0;" vertex="1" parent="1">
          <mxGeometry x="801" y="356.62" width="75" height="20" as="geometry" />
        </mxCell>
        <mxCell id="v258VC3TH_JYletUSXbh-36" style="edgeStyle=orthogonalEdgeStyle;rounded=0;orthogonalLoop=1;jettySize=auto;html=1;flowAnimation=1;strokeColor=#007FFF;" edge="1" parent="1" source="v258VC3TH_JYletUSXbh-33" target="v258VC3TH_JYletUSXbh-35">
          <mxGeometry relative="1" as="geometry" />
        </mxCell>
        <mxCell id="v258VC3TH_JYletUSXbh-33" value="&lt;b&gt;Input&lt;br&gt;&lt;/b&gt;" style="rounded=1;whiteSpace=wrap;html=1;" vertex="1" parent="1">
          <mxGeometry x="20" y="306.62" width="80" height="50" as="geometry" />
        </mxCell>
        <mxCell id="v258VC3TH_JYletUSXbh-38" style="edgeStyle=orthogonalEdgeStyle;rounded=0;orthogonalLoop=1;jettySize=auto;html=1;entryX=0.5;entryY=1;entryDx=0;entryDy=0;flowAnimation=1;strokeColor=#007FFF;" edge="1" parent="1" source="v258VC3TH_JYletUSXbh-34" target="v258VC3TH_JYletUSXbh-33">
          <mxGeometry relative="1" as="geometry" />
        </mxCell>
        <mxCell id="v258VC3TH_JYletUSXbh-34" value="&lt;b&gt;Response&lt;/b&gt;" style="rounded=1;whiteSpace=wrap;html=1;" vertex="1" parent="1">
          <mxGeometry x="20" y="457" width="80" height="50" as="geometry" />
        </mxCell>
        <mxCell id="v258VC3TH_JYletUSXbh-41" style="edgeStyle=orthogonalEdgeStyle;rounded=0;orthogonalLoop=1;jettySize=auto;html=1;entryX=0;entryY=0.5;entryDx=0;entryDy=0;flowAnimation=1;strokeColor=#007FFF;" edge="1" parent="1" source="v258VC3TH_JYletUSXbh-35" target="v258VC3TH_JYletUSXbh-39">
          <mxGeometry relative="1" as="geometry" />
        </mxCell>
        <mxCell id="v258VC3TH_JYletUSXbh-35" value="&lt;b&gt;Query&lt;/b&gt;" style="rounded=1;whiteSpace=wrap;html=1;" vertex="1" parent="1">
          <mxGeometry x="200" y="307.38" width="80" height="50" as="geometry" />
        </mxCell>
        <mxCell id="v258VC3TH_JYletUSXbh-45" style="edgeStyle=orthogonalEdgeStyle;rounded=0;orthogonalLoop=1;jettySize=auto;html=1;flowAnimation=1;strokeColor=#007FFF;" edge="1" parent="1" source="v258VC3TH_JYletUSXbh-39" target="v258VC3TH_JYletUSXbh-42">
          <mxGeometry relative="1" as="geometry" />
        </mxCell>
        <mxCell id="v258VC3TH_JYletUSXbh-39" value="" style="shape=image;verticalLabelPosition=bottom;labelBackgroundColor=default;verticalAlign=top;aspect=fixed;imageAspect=0;image=data:image/png,iVBORw0KGgoAAAANSUhEUgAAAQAAAAEACAYAAABccqhmAAAACXBIWXMAAAdhAAAHYQGVw7i2AAAAGXRFWHRTb2Z0d2FyZQB3d3cuaW5rc2NhcGUub3Jnm+48GgAAIABJREFUeJztnWm0HUW1gL9zMweCkEAghChDGEJQIGBAkAdKQHgKyKQMCjIIiqKCCgpikCcQEFFUkCkBURAjgoCAyigICggiowzKEDADSYDM073n/dg55ubm9K6urh7P2d9atVZWzu1de3dXd1dX7QEMwzAMwzAMwzAMwzAMwzAMwzAMwzAMwzAMwzAMwzAMwzAMwzAMwzAMwzAMwzAMwzAMwzAMwzAMwzAMwzAMwzAMwzAMwzAMwzAMwzAMwzAMwzAMwwihVrQCbcBQYG9gNDAc6APMA2YALwH3AP8uTLv2oD+wM7AjsC6wNtAbeAe5Bg8tb51FKWi0Fn2BE4A/I4Oq7mgvAacA7ypC2RZmJ+AGYAHuazADmAi8rxBNjZagBhwG/Av3gGvW3gG+DvTKW/EWYzPgPpJdg07gZ8C781baqDYDgckkG3Q924PAhrlq3zqcAMwn/Bq8DeyVs+5GRVkf+Bvp3PyN9jqwRZ5GVJwaMIF0r8Ey4Mt5GmFUj9WAv5PuwGu06cDI/EypNN8jm2tQBz6TnxlGlagBvyK7gVcH/gEMyMugirIv0EV212AJ8D+5WZMjtg0YxmeBy2P83VTgFuBJ4E1gTWR6vy/x3vAXAV9JqGOrMxx4BvcOyiLgbmRx8D9ABzAC2APYBdkW1HgVuWaLAnQ1WoiBwBvob46ZwPFED64acADiB+B6A22ckR1V56fo564LuAIYpsjYFLjJIacOfC0TC4xKcir6YHmO+DftYNzbVlenpnnrsDHycNQenId7yDsF/VNiFrBGSrobFedZ9Df/Jp7yBgFPKTIXIAuOxgrOQH9ofi6BzHMdMn0eKEaLsin6IDksodz3o7+BDg7SuvV4guhzdVtCmb2ApxW5k8NULhe2CJiMk4ALI357HtgSuZGTcAuwT8Rv05B1B0PG7hjl9x2BhxPK/iRwfcRvc5FPtmUJZRstwNVEvyG+Gyj7CEW2tXjtFcJebgPRvQlbxjejo2gFKsoGym+PB8p+NPB4Ax5DbtSkLAD+qfzeMnEC9gBIhrYYNz1Q9rTA4w2J7AtFuw6rpyC/FNgDIBlLlN9Ct4ksJDicQSnI0K5DyzgD2QMgGTOV30K/DzcNPN4IP4c19G1c7fpXCnsAJEP7PvxYoOzQ4w3YHsn8E3L8ehG/1YEXAmSXCtsGTMaHEb/yZnQC2yB7yb4MQbIDrRnx+w+AaxPIbVXuANaJ+O0c4PSEcq8DDo347Ulg64RyjRahN+IWGrVNdC/u4JJmTFRk1oEHsJRV3ZlE9LmaD4xKIPPD6M5Y5wZrbbQEV6HfrJfi94l1skNeoy1DAmDWTsOIirMH+rl6EUnWEpctke/7KHldWJIWYzmboQei1BGvvqhvyQaDgEsccpq12Ui2mj4p2lRFHkE/T28AH4oh52AkDZjrehrGf4lz485F3IZ3YcX+8QDEjfVMxG8gxOvtWeAjWRpZcvYkXjKQ24FDWBEW3MgHcAySg9F1/BLgvXkYZFSHdYDX8Lth46SoTtJuRWYl7cjl+J2rxcBSz2O+k5s1RqUYQzpZaNNoi4ELaD9notVZ4f6bRfsDlqrdUNgf8Q5Le+BNQLLZxCku0r1NB46lvfw8hiKLfmlfg0dIx7PQaHE+gOT+S3Pwnbxc9rbAnxIc/zgtmsyyCQOQKMC0HwCP014PUiOAEcDvSG/wvY282UCctj6BJKf0kdGFZC5umQi2CMaT/s3faEfnaIfRAuxKvJXlOO2yHrIHAN/Gf91hAbKQNTB9cwtnBNmuw0zFcgGWkl6Ue8FrIySd9x+RVNSNAdWJfKffC5wNvEz04FuGuBb3ZAPEZdU3H/4UJGVZK7mBX4du8ySk3t8/kcrMjf+fg7j2Xo4UEdVknJebNUZTasB2wFnAX4C3WPkCvQH8HjiRck93m/n5H4g++O5T5O2MJBHxfas9iAS9VJ2d0R+Cz7CqW3Z/pIJzd9ZAcgBEyVlEC2UCqhIdwJH4V9z9E1Ieuirci26PlhC0AzgK/0XITuTt6PJWLCsduGsy7ukh71iHrJvTUtyIx07IFM337da93YReFKIsbI1M96PseAV3ibBByFTVd0tyDlLnoF+K9uTB0eh2+bruduD2J9gjDcUNN4cBCwm7+RvtDSTldtlxVbk5I6acTUhWqvwlqpN6fBArr6v0bItJ5hm5E/onxbNY/EXmfId0bvzubT7l95lfh1XXNrq3eegJSXsyDj3HfVS7ExgdbE22nIduw/kBsq93yP5igGzDQZZpsecAW+VnSiJOQrfhF57yOpBzOsMht2frBK4hOuFGkWyC/pkznbDdoQ1YebegZ5uNhWNnwo74f7/6Bte8SLm3DvsgdQWj9O9CvA59GQz8GP8gmFnIGy9JgpOsuBld52NS6ONMRx8/SaEPoxs13Cu6dWQf+zTkTd5/+bGDgN2QAR7ngVD2Pd290fV/hOTuqaORKb7v7Olp5JOiaFxJQP5GOq67A9EjPZdS/tlkpTgU/cJ2IcExrpXw4Uj0lmvWMCJ1C9LlNnQbPhMofz+SBc/8luL2w3ujr2l0AR9MsT/XmLwzxb7aHq3abhd+07rewM8VeXXgR2kpnhGbIyvZUfr/h/AotX5ISew5Sj/N2iJkFpV3lNyJDr1+mXJ/NeDPjj73S7nPtmRL9JN8QQKZ/dDTRb1O+d1hv49+XtJKULke4hDkG3Y8FXFAyiNabgh6Itb5ZOMBuh36eXmJ6vlPlI7TiT7B00n+phmLvqc7Nkjr7FkD3btvMekWEhkD3K/0F9UeQ1KeZcnFDh3GZ9i3K1vzqRn23RbcRfTJPStQ9kOK7G8Gys6D49AH340p91dDvn2nOPrt2bqQoJws1la2Qt+9eI1soxzXA95R+p9Ddd2pS8HrRJ/cHQJln6bIvjpQdh70Av6OfvPtnkG/AxGHLN9t1vlIuLJrsdYH167FISn2FcUpDh0m5aBDy6Lt/Q8OlP0JRfbvAmXnRZKIt7QYjjgE+YYdv444IIWus+zv6OfBFPqIQ1/geUWPTsr/SVlatEWWUL/rjyiyq7SN4/LtPyHj/ndB0mP5PATqyJrCmIR99kMW2bSbbruEspOwr6JLng+jlmMu0SfVx/e9GUcqsm8KlJ0nG6JPx2cSPlty0YGEzPrWMuhEkpsOXVWkyqkOuRODrEnGHx06HVaATpVHc339eKBsbfX4okDZeXMW+uDLy57VEFdZX7ftecuPi7Ntti7uhbciwrxHoVeEeh05P4YHWvRVSDXcPugLjMcHyC6C1dBX55ciPhV5sRlSkMTnIVBHvqVdZdCvcsj4erqmePFjRa86VkTEm08RfTKXkTw01eU5luYeel4cjm7TXQXotDvwlEOvKF2bldsaQ7mdb9YC3myiV6MtQD7ZjJishT6tehT/baVR6FPIp9JQvABq6L4NdWCfAvTqgxQrne3QrWdbAvwQGQMg9rkyKu+bh0EOvoCu46+KU62a3Ih+Qu8gfmrm0eiZduvIYK0q70d/Q77Aqkkv82JtpGiqlt6sWXsT+DzufBB/zM8Uld7os54u2qcoSyqMwj1oXN+O/ZCEGq7glqlUPz/+Veg2FvmNDPA+4G78HgKNGyfqt6WUK1PROHRbrKqQJ3GrvD4HfA+JEDwYSVgxkfhZbw7Py6AMGYb+oHsHWUkvmgPwz+gc1coYwXkTus7HFqda9XgXelhwGm1ybtZkzzfQbb2yONVWoj8Sd6H5e7haHn4OScg6PVnbMRI97DOkPYaUkm4V4njKJfXCy4L1kQo9vm7FdcQduaxedhPQdU8Szt7WjEVP+ZykLUEGYKvxcXS7H6B8N85YpLqT7zV8GMkbWTYG4Q7bTpKivK1ZHz2hR5J2Uq4W5IcrBVoe0XK+1JD1m1fwu4ZdyGfce3LXWOcodL1vLU616tIfWc323VuOam9RzjTXobwXPV7+Vcq763ECya7lPCSRTP9VRRZCB+4ajXsVpl3FGYz4kCcpctGzXZqv6rlRZMacpLwL/8Cinu1l4KC8FY/AqgrlwEjEYeQiJIZgMrIFeA4S+z8Sd7ntrXPXOnvi5MwrWybkC0hnZldHiquW4bpei65nlR3QKsPBuAdLK+KKfbiuONVWYTP0rMcz8K9mtAyZ4RX5mWdVhUrCveiDpSzTxjTpjbuaclncU+PUPVgT2WLzDTt+i2KrHX/bod8lBenVVrjKbWedSLIodkcffGVwT3W50D7GyjpuSrKw4xdwhx1nwQDa8zO0dFyGPkC+VZxqmeKqnXd0caoFVfepUrVjLRdlHbgnZ33aEle57ayKSRRNmd1TXdWPf+44vg+SKl2Lx2/WliAvhDy/v+9z6HRAjrq0LScTNuCqyvnodhdRIHUw+k7FAuI/kAcjO0G+YcezkJX4XmkY5GAbh37/pjx+DC1LH+CfJJtyVplB6O7URbinXqroUwfOSCBzFPB7h9xm7VkkY3TWuCJcT8tBh7Ynr5LSZeMYdLtvzlGX0WRb3Wcf5I3q+yC4FdgooF8XQ9E/Q+fSmjEqpeN29IFwZHGqZUYH7niKPN6C4E6nfXAKffRFpve+1Y4XI58TWVU7/qqj/59l1K/RjZHojifTiJ9yrEp8gOLdUw9S+q8jJbjTjFhcH1nw8612/AaywJj2bDDOZ2hoCTwjBheiD4BzilMtU36JbveJGfbdH31qnmV1n+1xJxht1h5F/PrT5GOOPv9C+cK2W468y22XhSLdU7+l9FtH3tRZ0gg7ftWhR7O38mTS3SZ2fYZ+OsW+jAiOR78IvylOtUw5E93un2TQ53D0NGDvkF9Z7UY1o4WKPs1ao5pRGtt1W+CuKtRKGatKSQey6q9d9D0L0y47BqAn31hG8yIdIVyj9FdHfDTyZkQMvZq115CU5aH8wNHPd1Pow3BQZLntIjkEffDdnWJfO6Kf4xcptrrPh4B/NNHL1e5BUp4nZU10L8ZFyIK1kTG/Rr/QWZfbLoo/odsdWowV5Lv7r45+/jeFfkLpQN7qSaodX4N/teMGn3fI/3VCuYYHI5BYgKiLMAtJstFqbIu+PfYvwr93j1Tk15HgnDLRCDvWtombtdlI2LFvFaZewBMO2XuEGGTE4//QL0LVyofH5Up0u08NkL06sp8eJbts1X26sxnwO/w/C54HPurZ14ccMp+mNT9DS8VA9O2hpcBWhWmXHUOBt4m2ew5SeSgJZyty64gvRtkZh6wD+T4I7sSvPPsNDnlVK19fSbTS5HWKKbedB19Ht3tSApkboW+zzaKc1X2a0ah2rD0om7UlyMwxTrh1K52vylJDimdoF7WIcttZ0xeZukbZ3IkU8PDhN4q8qr7RhpAs7Hgm8cKOW2HGVHm2Q18Ye4lit6yyYl/0wfcQ8d1TW/2bdlvcOyjN2uPoeRgLXTMJSYowDHlDbI/UnxuOuNrORaZBVWIqsDGSwKEZgxGvtYeQ7+ftEJvHIG62VbX7ecTnfZOI30cgefWeQgJsxrDC9hFI9Nys5X97E3o14kOQmICqMg2J2nsOGfdxMyoNQxKcjkIiM9/p8fsSZLawf8TxHcinwrXImtUY5GE0Ftgc8aRciHgsZs42iKfSU+jfQPcj1WCT7pMWwfrobqtz0afMS5A3xDeoVvWhLdHj9GeiexAuxL1gdkNexuTEAKTQiraN3KzNR9yKe+Y9iOM38Q/06/QksquVSbLRUbjroDdrC4CfUp0HwTfxtzHK7oupzoPgR6Rjd9QDIsuEG0UyAqm14Fvt+DVkRtT982qHBHKi2o1I3EEwHcgbX3vyxGkzgAPTUChj+iOOMGkN/mmk41mXNYORN30WD4Czc7SjKHbGHV/SrD3AyqHQSWIUotpS4CwCQoxXJ9lbX2tnJVUmRw4j/ZtgfK4WJMOVtSZJm0X7RLd1IOnWtXDzZq0TKW23LrKeFPqy7dluJME16IdkaUl7QNQp97bGaiRLIBGnnZ+jHb6sTTLHlzit3WrhrYFkXPatZvQO7rRpSdsDeO5iXZ2RIo32WR9lcqJGsuozPu2o3KyJTx8kG01WNnfRnvnvRwK/Jdvx5NNiO3Z9zkPoi4jv9HWIG2TcYo4LCAupzAIfu19ghd13Eb9IxXzK5wd/JvHtfhq4BbH7XuJ7yc0kuWtx1dmDdMraN9p05F67DhmDL3kce6xL2TVw38TLkGCSUU2O7wXshsRMu5RJM/Y8lKHoW4B15NvsMmTvtSe9gA8Tz1HkDxna4cvm6Blq6sgq/gXAe5oc3xfJdfeYQ0YdyUvYrvQGvoheFCXO/bIrzROWjkLWEVzeitNwZD52RcdNR1Y843AC7gWN3WPKypoJ6HpORRJcxOFLuO3eNUXdQ/gZup4vES+4pYaMHW0bq5PmL412YjCSes1noW8JMjuNwy64X+DfiTq4N/oT6m38L+Dh6IMiz8IUUQxAzyM/G/8KOkcq8uqUI+/gergLdfhO27+hyKuTfQLQqrAVMo133fxdiL+AD1siC4pRMt8kwgPY5cv9CU9FGmjloBZSfC5+V7rmKBdNFxMVmfORHYciOQ594H0ggcwacJsidxqtWYEpKUehj72kiVpdW9m7Nv6wu5PARcj0tRmPIp5K9QTKDEV8wKMG/ERkMbEo9iZ6Sv4Q8T95ejIMcSoaEPH7Fct/L4pPIj7lzfgNUswjCaMRV/EoB5QLkWmqIWswUTtD85D4lDcTyK0hcQfbR/z+Q6RK80povsih+fFc+ffK2kK3K8u0DeTTPhZo98MlsKHq7Xrvs74yJyqyH2r8UffpWFREGMiWTwhlWvH3wexORlXtLhP3BB6vXYP/3uvdHwDat/iUQGVCjy+COlKoIYQq2j0bWaMIoYp2l40s77n/hjLHXZAJrVlWxZpnNdrX7jLIaHdCF0tjXYPunfRMVNCdDcJ0CT6+KIYHHl9Fu9cifIeiinaXjdBzOEL57e3GP7o/ALRsLaEOO+MCjy8KszsZVbW7THw48HjtGvx396l7jra/El2j/AgkwUU9gSLrAnspv1+PpOYuil2J9vI7kuTOK+ujF3e4jmK/lT9KdMrzIxGf/ySMJnr7CWT7c3ZC2a3GRkT71/wvsoWeZMu0hl5p+OFm/7kb+raEr0dSg8sUmQtx+CbngMsRKGkik0mKzDI4An2WaP26SOb/UAPuUOSaI9DKuByBLkko15XqvmmS0t7oWWHewa/oQRxFyuAK3B/ddfItmgcAabgubBly5K2L7go8BX9X4NMUeXXEK9TwcwU+zFP2aHTX9khXYJCMPZpCM9BTHHfnRNxBD6HfOWlxLrqe04j/RjwJd1TWLinqHsLV6Hr+m3glwzuAc9DjPpaRUp66CpMkGGgp8IWY8nfDHZo+XhMwCHel1E5ketssrt0nLLZMFXfWQX9qNgawFgY9jnhZlO7I0A5fNsMdDrwIcd9tltizL1JbwFXoso6sebQraYQD34fE6zR7e49GHuZabYs6EtXqTA+mBYk0e0Pchlzcu4mfGGMB8d4seeJj90usSAhyN/ETas6jfCGx44lv97NI1qTrkIe89unUvb2JRB+2I2knBJmBvDyvQ+69lz2OPSau0lelqHCQIjlSI3vf/SNysyY+vckuD2IdeStVITNy2pQtJdiVPsr3w10vL2krc3LMgWSXDLXM6bEHk+5bqns7MUc7ykAZk4Lej3yuebEa7mKPvu1MXyUKIIu04KfnakEyLC14GGVNC34DAVvONeSmdS0Uudo0kifWyJO0C4NMpRqVhbMsDHJOjnYURRkLgywBvk1KcRmbI7MB39JF85Ftj7XTUCIH0ioNNg9JsFKV2u5ZlwbbOD9TcqWMpcG6kPwbm2Zh8PsQX4F/KAosZkWRzKrc+BBeHHQxEkd/ClJTviqMxl0c9GXl94W41w/KkAMxTYoqDqrNxJ9AEn7mtru2LuJ4cDCS/HNvpHpw0S6uSXFlyP3a8r9bG3Hk+TiyXrAXUpG1qna7Fp4anmjDECew/VlxvbdFFpd6ob8U6sgedtWpIanUXsX/rXw98O4IuUc4jr99+d8NRMqCfxTxsj0YiWWpSvHd0rIduhPFS3iWVqoI+6EPvIeI/w3pSir7NCsHn1WNbZHVdJ8bv47UTNA8P1cH3lCOX4K/K7rhQQ331l9ojrwy0hf9k6YTedv4cIMirw58Pg3Fc2YIsp7jcu/u2WYidREj/e6Xc45DzvdTtcZYBdf0687iVMuUU9HtnphA5rvRv4tnUZ31kT7IDRy3/Fn3N/ZFdEu7pbARsoYSJWsGsGZaBhmrMhBZkY26AEuJjpmvMuuiD+w5JK/l911Fbh1JSV12xpGsWvKd+EXMuvxsjgs3xdA4m+oP1iRouQrqyE5GUqr8UN0cifHwvfH/iSTw8MG1ZvIE7s8HIwDX9KtK01UftkVf8PwX4QueVfusWgupD7kYvxt/NvIp5etmG2fXZLcAe4wYtOKClYsa7pXs/VLqpwoLqx3Iw8oVAt+zdSJee0m3305wyJ+cUK4Rk1bfsorCFeeQZkGPsm+tfgj3W7hZuwdxiEvKWuhh8wuBDQPkGw564U5goSXzrCoDgFeItnkZ6XuRuZyrvppyf3EYQTKf+9dIJ5z7h45+/i+FPgyFz6FfgDLk68uC76Db/eMM+lwXPWnIHPJLFLIa4oarrfs0a/OWH9c/BR1Gobvzvk77RE8WwprI3mrUBViMJHJoNTZA35+fTXZxG6cr/daByzPqt0ENcZlN4r47mWj33SRoGZPriHuvkSE/QL8AZU7aEcL16HZ/McO++yHl36P67kSvIxDC+0mW7egRYKeUddnH0edfsJJqmbIF+vRrGnqB1KqyE3qY6TOI11uWHKj0X0du0jQH//pIPQpXksye7Q3E+Sbt2gUut+su/N2uDU9uR7/4ZczXF0oH8Ci63R/JSRdX1GFUhRwf+iLuu64Mzz3bYsR9N6siNV9z9H91Rv0ay/ko+gX4G61ZsUar/lNHklbmhSvvwGusGifvwz5Ilmrf6f6tNE95nhZD0d2u5yIzFiMj+iCumtr064OFaZcdg9Dz0y1G6gLkyU8VfepICitftkFy5vve+H9HYumz5gqHHt/MQYe2xpXs8priVMuU76HbPaEAnVy5BxcQf9V9MMnCdGcRL0w3DbZ16Pcv0tleNCIYitT2i7oA80l3m6csbIKelnoa8cJVs+Aril514BeO4xthutp1bdYaYbp5hte6KmRVIVFupbkc/QJUIV13Em5Ft/uo4lSjN/BUhF6NT7KoDDrjSFa/4E6al7LLkk86dLonZ33ajm3Qp1+vErboVFbGoQ+8xyl+wdOl42OsrONmuB9qzdrzFBN0NAA9keoywuIJjBjchz44DixMs+wIebvmjSvu/ihkuj4B/yo7byFhukUFG4136HdxQXq1DQejX4B7i1MtU76EbneZKvRuhh5/PwPdbTvqzXopUu25KDZA4geidMzS7bot2Aypl/4jxFd7MpLhZgLy3TUS9/Rr69y1zp4hyOCKsns+EglXJi7Af1qvPdTLcF2vRdfzy8WpVl2GIAVJniV8oFyas+55cTG63eOLUy2Sd+GfjKNnexk4KG/FI3C5XT9L9m7XLcUApMKQ75ZPVHuLYqeHWfFeqrvg6cqOE9XmIbs4ZdlHj+N2vVdh2lWQ4bhPqG/7Sq4W5IfLz/6TxakWSSNM9xX8rmEjTPc9uWusczS63rcUp1r12AH/MsuutoTW9LneH93uByhfmOlYJPzV9xo+DOxYgL4uyuh2XVk2Rdw107z5G+3vZBfxVQT90MuZdwJjCtNuVdZH0oQlqYJ7DeV7kDWYgK77BcWpVi3WBJ4jm5u/0VqpUq2rnPmVxam2Ev0RXbXqy642k3KWW3e5XU+nOLfrynEl8QbDM8D5yHfXwci24BWIj3uc4z+dl0EZMgw97v0dJCdf0RyAPkvxaT/KWfc43ISu87HFqVYttsQd2fUcUpY6ir6IM4yrnttUyrsqHper0W38emGaCe9D0oz73uTa58FS8vfp16iC23VlcD1JbyP+9/so3MkhquyQMRY93dUL+FerSYu1gUvwD9N9EynG4qoq9Mf8TFGJ43b9P4VpVzEGo2eLeQTxCfBhC/SZwNNpKF4ANeAh9JtknwL0aoTpat6IzdoSJFf+Wsvl1HAn8tw3D4McfAFdx18Vp1r10J76y/CruNodl5NJFbdmPo1u010F6LQ7+ttQ07VZodAxlLuq0Fq4E5tsWJRyVURLW+1KEKHRBym2ECX7+ADZRbAauj1LSf6wTEKWYbpXOWQUucbxY0WvOlKExfBA2/oLne79RJFdxlVlje+iD7y8ypmvjlTL8Q3Tnbv8uDhv7zhVhYalY44XW6Knl5+CPKgND7T94Q0CZX9GkX1ToOw82RCZWkbZksc+eQeyrZWkmu4V+FfTPdUhd2KQNclwuV0fVoBOlUf73guNntpLkV22OvUav0YfeCdk3P8uyLaWz41fR8qRJ/VG7Id872sPlu0Syk7CvoouddIvcNI2aFPJIYGyD1Fk/y5Qdl58EHd1n6zKmW+AuOH6uu9OQRZ3Q2+Ijzv6eSiFPuLQF9le1R5GVt0nIVOIPrGhwR/fUmRfHSg7D3ohMQzaTbB7Bv0ORBaztM+OZm0+kt/fd9tW405Hn4ek2FcUpzh0mJSDDi3LXUSf2NB66X9VZH8jUHYeHIc+8G5Mub8acCj6Q7lZ60JSjmWRdWgrsq0q5GI9ylPmvCXRglpmkDyCb0f0qWtWVWnTYg30+IbFSPRkWoxBwod9bvw6ksU36+pK2m5OHdldyIpJjr5PybDvtmAU+gm+MIHM/kjNvyiZUyj/gs2F6Ofl3JT6WQ8Z5L7VdKci2Xvz8Hcfgh4mnlWRl+0ot1NSy/AM+mA7zkNWb2Q6qsm7KC3FM2Jz9P3m/xCe26Af8vbyraa7CDgvhf59OdGh1y9T7q8G/NnR534p99m2aKv1jfZ93E4W78YdhbaAcP+CrLkN3YbPBMrfD3jR0Uez9lsRzcmMAAAGlElEQVQk83IR9EavDJR2oddDlb7qVGsbufTUiJcD8A3gDKTyT2OleU1kJfwSYGEMGWlNnbNib3T9HyH5tHs07lX1Zu1pJPy1aPZA1zOtUu8DkcXFqH6W0jyOwQhgLP7upb5//wLlztDSB901ugv4QAK5gxEfdm01vVmbBXyR7PwMknAzus7HpNDHmY4+fpJCH0YTXNFuIW0O5Uoo0YyT0W34uae83sj6iW+VnaXAZZQzjXrWabhGIIuKUfJnE+6gZiiMJ/2bfz7wkTyNSMA66DUQ5uG3dlGlarq+nIduw/kBsrXo1DoyIzIy5lD8vdCi2uuUf88f5I2r2fGtmHJGIrnzfc/Ti0iOxSowCNkJibIlaSpuV3WfZ7DqPrmxI243WK11IUE0ZUiO6WJr9DRar+B2rx2EvBl910XmUGw13aSkXYyjA3Fq0mTukYbiRnw6gE+hR4U1u/HvoZxFJKK4F90m7c3cgTjk+BZT6UQcgKrqxtqB7uxVB/b0kHesQ9bNaSluJGNbZHX2QVbNPfcacDuSq62se/wdSDqpnh6IB6EPvPsUmTuTrITag1Tjs8jFzvhHSg5g1dmOy+16EcX5PxgRdCAXrqyMBL6GOCZ1X4XvQrLg/gk4B3c5822ayN4A8XZMEqZ7GOV3g/bB5fU5CQlpfpGVV/fnIg+IK4AbHDLOy80ao/KMQ+rY+b6Vm7XLesgegITbattUzdoCJLy36vUQmuHatgttUyn3i8YoCRsCfyC9gfc2K9Jo1YBPIKW+fWR0ISmqswiUKRPjye4BcHSOdhgVZSfilyaL205aLntb5HPB9/jHaZ/iFAPwLzUe9xxadR9D5UBk3zntwTcB+T71DdOdjqxot9PAHUqy4CZXewSb/hsK25Oew1JoW4yUoi5zrEMWDCJZwtK47U4kNZthrMS66IU6mrV5nn8ft91KNSsdpcEV+J2rRei5Fpq10NR0Rgvict2tI15230Mi+Bor8P2Q6rln4O+807M9S/ljHLJkT+Kdp1sQZ6pGcFMNGA4cSbz1lSXINTMMQIqPukJrb8QdTbcakp3I98afjRTjbHe/dJcT1BTiJQnZHz0QqzHLMgwAfoY+WC7Gz9nmyw55jbYM+ClShrvdcb39X8CvfNgWiIOWJnNUSrobFaYP+tvibpItGl2uyKwjGXttGroCLVvvPOSG9mU39F2XCaFKl4lWcgfNk3FE54PrRCL7nkkgdzAS9LRWxO8/AK5NILdVuYPoT6yziR8+3ZNfAIdH/PYkcn2NNuZcot8Qvw+U/UNFtrV4rZOwEPDtFdldSHXklqCdHEXSZHPlt9B6g1WpV1hmHkWcoZLyGOLV2YwaLbTdag+AZGgLcC8Gyg493gg/h3XkUyyKllmAtQdAMvoqv80LlD038Hgj/BqA+G9E0T8F+aXAHgDJmK/8Fpp+rKrZecpEGingtOuQxgOmFNgDIBlTlN/eHyjbasyHM5awHa7VgS2V318LkF0qylTsoUo8qfx2AHA6slqchIOU36YhlZEMYbuI/x8O7ICUhk/Cx4ie5s9Bwo6NNmYk+jbUpxPKHYue4uvAIK1bDy0C8A8JZfZCL1R7fZjKRqugDZKZ+CeQHIRexGM+7sKo7cbp6A/izyeQeb5D5qHBWhstwanoA+V5YNOYstYG7nfIm5Si7q3ChuhhvUuQaL841IDTFFmNB7slBzEACe115QKYjaQpj4rYa+T5e8UhZzEy2I1VuQS3Z+BV6Knit0Ai/VxyTs7EggKxWIAwjkWSUbiYjsSjP4Us5A1BBt0+wMYxjr8Q+GpCHVud9ZHPsTUdf7cYKb5yL1JSrANJlLoHUlvAFbz1MhIJuDhEWaO1qOEuJBnansBdEqzd2Qf/+gg+bSHVqjJl5MhqZJePbiqwUX6mVBotQCu0HZGjHUYFGUay8lxae40WCjrJibNJ9xosBU7M1QKjsgzAXaIqbruf1i/kkRWfI53Eq7OxSsCGJzUk8WTS/PRvIcVAzEU7jJHAXSS7BsuAiYg3oWEkog9wPJJtdhnuQfcCsso/qAhlW5gdgMnEqxs4DUnJNroQTQvCtgGzZx0kbfdWyJZVfyTkdyrwbyR/4KuFadce9EPSsu+IRPmtgzykZyLbew8icQNJ4zcMwzAMwzAMwzAMwzAMwzAMwzAMwzAMwzAMwzAMwzAMwzAMwzAMwzAMwzAMwzAMwzAMwzAMwzAMwzAMwzAMwzAMwzAMwzAMwzAMwzAMwzAMwzAMw2hT/h98JyFqKf56jwAAAABJRU5ErkJggg==;" vertex="1" parent="1">
          <mxGeometry x="380" y="313.62" width="36" height="36" as="geometry" />
        </mxCell>
        <mxCell id="v258VC3TH_JYletUSXbh-40" value="&lt;i&gt;&lt;b&gt;Embedings Model&lt;br&gt;&lt;/b&gt;&lt;/i&gt;" style="text;html=1;align=center;verticalAlign=middle;whiteSpace=wrap;rounded=0;" vertex="1" parent="1">
          <mxGeometry x="361.69" y="370" width="72.63" height="20" as="geometry" />
        </mxCell>
        <mxCell id="v258VC3TH_JYletUSXbh-46" style="edgeStyle=orthogonalEdgeStyle;rounded=0;orthogonalLoop=1;jettySize=auto;html=1;flowAnimation=1;entryX=0.043;entryY=0.501;entryDx=0;entryDy=0;entryPerimeter=0;strokeColor=#007FFF;" edge="1" parent="1" source="v258VC3TH_JYletUSXbh-42" target="v258VC3TH_JYletUSXbh-70">
          <mxGeometry relative="1" as="geometry">
            <mxPoint x="815.9400000000003" y="331.58333333333337" as="targetPoint" />
          </mxGeometry>
        </mxCell>
        <mxCell id="v258VC3TH_JYletUSXbh-42" value="" style="shape=image;verticalLabelPosition=bottom;labelBackgroundColor=default;verticalAlign=top;aspect=fixed;imageAspect=0;image=data:image/png,iVBORw0KGgoAAAANSUhEUgAAAIAAAACACAYAAADDPmHLAAAACXBIWXMAAA7DAAAOwwHHb6hkAAAAGXRFWHRTb2Z0d2FyZQB3d3cuaW5rc2NhcGUub3Jnm+48GgAACXZJREFUeJztnWtsHFcZht/Pa5vS5lIVo9B4NxXKpYALluJCERRBVBBFBZWooSpUSUMM1BERgiZQqY1UcQkKCSVIFQVcpEIMrVJRiNRWpfnB5U9cCwyhP6BRDPgydgi04LjGcdJ4Xn6sJ12vx3uZPZe5nEeyZM/snvN53/f75pyZObNACsnnV3evWbO6F0CT7VjiTs52AKrJ51d3i0gvINevXLkyPzU19TQA2o4rrqTKAK+JfynzNzoTVCY1BggRP8CZoAKpMEAF8QOcCZYg8QaoQfwAZ4IQEm2AOsQPcCYoI7EGiCB+gDNBCYk0QAPiBzgTzJO4EyUVxL8A4MHy14vwEQDji1tid6GQz/zJokT985XEF+EWUp4uf4/v4xQpm+BMEEqi/vGmpqYNWBzzLCkfHx2deGqp93med2pujjcBmFi8129ft25di9JAE0SiDDA66t0LYF/JpgsivN3zvGervXdiYuIkKR/Agkogx3K51s1DQ0PnVceaFBJlAAAYGxvfi6IJLohwS6XML8fzvJLDgRzL5ZpvHR4entUWbAJInAGAoglyOXbWI36A53mncrm5G534RZptBxCV4eGJF6O/95/DCkNJNImsAA51OANkHGeAjOMMkHGcATKOM0DGcQbIOM4AGccZIOM4A2QcZ4CM4wyQcZwBMo4zQMZxBsg4zgAZxxkg4zgDZBxngIzjDJBxnAEyjjNAxnEGyDjOABknNgbwfX/S93028nPkyJHflLd73333H2i0XZJnSV5p43PRTSwMQPIhACttx1GBFQD22g5CB9YNQPIqkj2241gKEQl+/QLJa23GooM4GOAXSMYaxRaEPIEk6Vg1AMl3Ani/zRgqUZL9AbeQ/IiNWHRh2wA/t9l/RL5DMjVPFLFmAJJ3A1hjq/9qhGR/wFsAfN5gKFqxYgCSzSRjezytIH7AAyTfaCIW3diqAD8CcIWlvlVwJYCv2Q5CBcYNQPJqkltN91srNWR/wGdJduqMxQQ2DHDURr8ayAE4ZDuIRjEqBMlNAN5lss96qCP7AzaRvE1HLKYwbYDHTfZXDxHEDzhI8jKVsZjEmAFI7gGwylR/BnkzgHtsBxEVIwYgeRnJr5voKwoNZH/A/SQLKmIxjakK8DMAiS2TNXA5gG/YDiIK2g1Aci3Jzbr7iYqC7A/YSvJGVY2ZwoQBjgJQ9inHGAHwXZKJmuJqDZbkxwBcp7OPRlCY/QFdAO5U3ahOdBvgUZ3tN4IG8QMOkFyhq3HVaDMAyf0A3qCr/RjzJgBfsR1ErWgxAMllJGM7N9aY/QF7SK7T3YkKdFWAJ1G8hSqrvA7Afhsdd3R0tKKOQbdyA5C8juSHVLerCgPZH3Cb6c+ho6Oj9ezZyScLhfwjqFFbHQbIyrSvFg6RNHLDayC+CD5az7ehKTUAyU8BWKuyTZUYzP6ADgCf0d7JAvEDajOBMgOQbCL5fVXtqcaC+AH7SGqdDU1Pv9Qugo2L97C7UGh/GBUqssoK8D0UV9A4FnIVNK8qGhk584/FX4l3ibsrjQmUGIBkG0ntpS4qFrM/YBdJrWdEF34lXjlLHw5UGeCXSMbqHls0w8DtY1FM0LABSN4AILZXwWKQ/QEfJHmL7k7qNUHDWRv31T3PP98PMh7fED87e+4n69evPXT+/PmLuvsi5TmAO0L2dOfz7XOeN94DgA2lB8meOI38+/v7cccdt9sOIxGQ6PW88Z7IBpif9k0DeL3CuCIzPf0Ktm3bisHBQduhJIkfRh4DiIgPYEphMJGZmZnBjh2fduLXBwG+0NAgUEQ+qSqaqMzMzGD79m0YGBiwHUqSIMBdY2MTDzc8RPZ9fwCWFnsUy/42DA7+YdG+rq4u7N69x0JUSzM1NXVi587PfdlEX6TcDGB32C4R6Rkd9XoBBRdt5tf6eTC8yKRS5nd1daGv76dYtmy5yZCqMQegS0T+rLujQqHwYcA/isV3Yl/K/GBDw6KJyGkR6Wu0nXpIoPgA0Bs38QFFl23n1/tPwsCS74SKPwlgvYi8pLOTesUHFJVtEbkoImHHG6UkVHwA+GocxQcU37jh+/4IND32pdqAL8bivwjgHSLyqq4Orrnm6rf6ftOfULwVrZQFA74wlA7cRGSLyvYCXpvnJ058ALhHp/gAMDJy+q8Avl22mQB3VRIfUG+A3wP4nco2q5X9w4f74iz+MyLyrImOxsbG9wL45vyfFct+Kcovlc0/+fMMFFxoqlb2Dx/uw/Llsb0H5VUAbxeRkyY7XbMm/y0Af6uW+QFarpWSfIjkrkbaqCXzYyw+ADwoIvE6ExWCtovlvu9PIuIDoGst+zG61l/OvwBcKyKTtgOphrazdyKyM8r7UiA+AOxNgviA5vv3fd8/CWBDra+vZ8AXYwOcAHC9iMzZDqQWtJ6/F5HNAGq6HScl4gPAF5MiPqDfAH+pZRqU8KleKU+IiNJpsG60p9L8SuGXAbSG7a9X/Bhn/zkAbxORYduB1IP2S7giMi0iB8P2pUh8ADiYNPEBg4s4fd//N4C24O8oZT/GBhhHcdr3P9uB1IuxmzhEZHvwe8rEB4B7kyg+YHgZt+/7J2ZmZjqjDPhibIB+AO8VkXgsPqgTo7dxHT9+/M677tqaJvF9FKd9iRQfMFgBVq1adUVra/MzCPmSqISKDwCPikjI6pvkYOTTjSo+EGsDTAPYICKnbQfSCNoPASkVHwD2JV18QHMFqCR+Z2fnhccee7y10hm+GBvg7wA6RGTWdiCNoq0CVBJfBP0HDuzfnFDxAWB3GsQHNFWAauK3tp67eWjoP1O+7/cDeHdoYPE1wK9F5CbbQahC+adcq/jA0quKYiz+HICNIvKC7UBUofQQUI/4xW1yWkR+vPB1sRUfAH6QJvEBhRWgXvEDylcVxdgA/0Vx2qd1gYdplFSAqOIX98tFEfnS/O8qwtHFA2kTH1BQARoRvxSSzyG+j5c/A+BWEdH+bB/TNGQAVeI77BHZAE78dBDJAE789FC3AZz46aK5UGh/onSDiPxxdNQL/baLtra25S0tzb8C8J7yfU78ZNIM4BOlG3yfl4e9cD7zn4ITP1XUdB7Alf30UtUATvx0U9EATvz0s6QBnPjZINQATvzssOgxLiKyoqWl+RjcaD8ThDzHh+8LuyjnxE8nNU0DnfjppaoBnPjpRgqF9mrLmgYAvLLEvt+OjY3vUxyTwyC1PMvvhgr7XlYViMMORheHOuKHM0DGcQbIOP8HPVvHc8ywl+IAAAAASUVORK5CYII=;" vertex="1" parent="1">
          <mxGeometry x="556.25" y="314.38" width="36" height="36" as="geometry" />
        </mxCell>
        <mxCell id="v258VC3TH_JYletUSXbh-43" value="&lt;i&gt;&lt;b&gt;Vectors&lt;/b&gt;&lt;/i&gt;" style="text;html=1;align=center;verticalAlign=middle;whiteSpace=wrap;rounded=0;" vertex="1" parent="1">
          <mxGeometry x="543.19" y="360" width="60" height="20" as="geometry" />
        </mxCell>
        <mxCell id="v258VC3TH_JYletUSXbh-48" value="&lt;font color=&quot;#0066cc&quot;&gt;&lt;b&gt;Search&lt;/b&gt;&lt;/font&gt;" style="text;html=1;align=center;verticalAlign=middle;whiteSpace=wrap;rounded=0;" vertex="1" parent="1">
          <mxGeometry x="650" y="312.56" width="60" height="20" as="geometry" />
        </mxCell>
        <mxCell id="v258VC3TH_JYletUSXbh-50" value="&lt;b&gt;Query + Relevant Context&lt;br&gt;&lt;/b&gt;" style="rounded=1;whiteSpace=wrap;html=1;" vertex="1" parent="1">
          <mxGeometry x="662" y="457" width="222" height="50" as="geometry" />
        </mxCell>
        <mxCell id="v258VC3TH_JYletUSXbh-58" style="edgeStyle=orthogonalEdgeStyle;rounded=0;orthogonalLoop=1;jettySize=auto;html=1;entryX=1;entryY=0.5;entryDx=0;entryDy=0;flowAnimation=1;strokeColor=#007FFF;" edge="1" parent="1" target="v258VC3TH_JYletUSXbh-51">
          <mxGeometry relative="1" as="geometry">
            <mxPoint x="660" y="482" as="sourcePoint" />
            <Array as="points">
              <mxPoint x="627" y="482" />
            </Array>
          </mxGeometry>
        </mxCell>
        <mxCell id="v258VC3TH_JYletUSXbh-59" style="edgeStyle=orthogonalEdgeStyle;rounded=0;orthogonalLoop=1;jettySize=auto;html=1;flowAnimation=1;strokeColor=#007FFF;" edge="1" parent="1" source="v258VC3TH_JYletUSXbh-51" target="v258VC3TH_JYletUSXbh-34">
          <mxGeometry relative="1" as="geometry" />
        </mxCell>
        <mxCell id="v258VC3TH_JYletUSXbh-51" value="&lt;b&gt;LLM&lt;/b&gt;" style="rounded=1;whiteSpace=wrap;html=1;" vertex="1" parent="1">
          <mxGeometry x="349.06" y="457" width="80" height="50" as="geometry" />
        </mxCell>
        <mxCell id="v258VC3TH_JYletUSXbh-53" style="edgeStyle=orthogonalEdgeStyle;rounded=0;orthogonalLoop=1;jettySize=auto;html=1;flowAnimation=1;strokeColor=#007FFF;" edge="1" parent="1" source="v258VC3TH_JYletUSXbh-32" target="v258VC3TH_JYletUSXbh-50">
          <mxGeometry relative="1" as="geometry">
            <mxPoint x="836.7400000000002" y="427.64" as="targetPoint" />
            <Array as="points">
              <mxPoint x="838" y="440" />
              <mxPoint x="838" y="440" />
            </Array>
          </mxGeometry>
        </mxCell>
        <mxCell id="v258VC3TH_JYletUSXbh-55" value="&lt;font color=&quot;#0066cc&quot;&gt;&lt;b&gt;Augment&lt;/b&gt;&lt;/font&gt;" style="text;html=1;align=center;verticalAlign=middle;whiteSpace=wrap;rounded=0;" vertex="1" parent="1">
          <mxGeometry x="764" y="513" width="60" height="20" as="geometry" />
        </mxCell>
        <mxCell id="v258VC3TH_JYletUSXbh-56" style="edgeStyle=orthogonalEdgeStyle;rounded=0;orthogonalLoop=1;jettySize=auto;html=1;entryX=-0.001;entryY=0.332;entryDx=0;entryDy=0;flowAnimation=1;entryPerimeter=0;strokeColor=#007FFF;" edge="1" parent="1" source="v258VC3TH_JYletUSXbh-35" target="v258VC3TH_JYletUSXbh-50">
          <mxGeometry relative="1" as="geometry">
            <mxPoint x="708.7599999999998" y="450.9" as="targetPoint" />
            <Array as="points">
              <mxPoint x="240" y="410" />
              <mxPoint x="455" y="410" />
              <mxPoint x="455" y="474" />
            </Array>
          </mxGeometry>
        </mxCell>
        <mxCell id="v258VC3TH_JYletUSXbh-60" value="&lt;font color=&quot;#0066cc&quot;&gt;&lt;b&gt;Retrieve&lt;/b&gt;&lt;/font&gt;" style="text;html=1;align=center;verticalAlign=middle;whiteSpace=wrap;rounded=0;rotation=-90;" vertex="1" parent="1">
          <mxGeometry x="824" y="404" width="60" height="20" as="geometry" />
        </mxCell>
        <mxCell id="v258VC3TH_JYletUSXbh-61" value="&lt;font color=&quot;#0066cc&quot;&gt;&lt;b&gt;Generate&lt;/b&gt;&lt;/font&gt;" style="text;html=1;align=center;verticalAlign=middle;whiteSpace=wrap;rounded=0;" vertex="1" parent="1">
          <mxGeometry x="185" y="513" width="60" height="20" as="geometry" />
        </mxCell>
        <UserObject label="" id="v258VC3TH_JYletUSXbh-66">
          <mxCell style="rounded=0;whiteSpace=wrap;html=1;dashed=1;fillColor=#f5f5f5;strokeColor=#666666;fontColor=#333333;" vertex="1" parent="1">
            <mxGeometry x="10" y="100" width="280" height="160" as="geometry" />
          </mxCell>
        </UserObject>
        <mxCell id="v258VC3TH_JYletUSXbh-69" style="edgeStyle=orthogonalEdgeStyle;rounded=0;orthogonalLoop=1;jettySize=auto;html=1;flowAnimation=1;strokeColor=#007FFF;" edge="1" parent="1" source="v258VC3TH_JYletUSXbh-67" target="v258VC3TH_JYletUSXbh-18">
          <mxGeometry relative="1" as="geometry" />
        </mxCell>
        <mxCell id="v258VC3TH_JYletUSXbh-67" value="" style="shape=image;verticalLabelPosition=bottom;labelBackgroundColor=default;verticalAlign=top;aspect=fixed;imageAspect=0;image=data:image/png,UklGRrAMAABXRUJQVlA4TKMMAAAv5MBMEOfkOrZtpdn3XtzhjxYy6b+F9OLuglOD40aSFCm6Z/aYwX9DzqL9H1M7jiTJiRKtwTSsxxB4iRPtJrZtV1lUVMlBlIGZLJSeQcOTcD45vf/WASzsTQAV2gzooUGDL/TQwx8q/KFChR4aVPjBH/4NhAf8IA2EQKA1gAgDCLQGQjcOQBqZoDj5YaZwA4MFLjTxChI/kD9uw/5oooHwsb+hNvyg+RWCQBMtN4fRv4dLJEz1V9BCh/CD5lPwQpQpQdMDOggEAgUKFCgQCOQb5SX9ZBEEkjiFYhyBQIFAoLzKOTqvq02GO3Rk16mqoIvOIXCWnby4Ljv5ovdYtmzZC4t1r703k7qFh+tpEy07PprAFp3V5bAbL/fbYzee7tfH4/a4X2+/2+ONz/tn2b7HpBA2YbfmKGjbhknKH3Z3IETEBABSVRu1ZQCmmkeLZWnbGkuO/vou4F+xYkEHKIkWhKClBKlC3nvTVt67lW5p7rY052T+/LCciej/BNDatr1t2+DCD8iRj9LWU1Q23S1KpuTBOMODulqNqp+PMkn3y95774HsnX/LBeH7BPYwov8TINvZ9qiNfn01JClhhu7ZQAX5PwAJHwD3f3P490LS+mg0Ef2fAFL+xQezu6rVanV6XGM1OTv74GVa9ZcePH//uXv3bm5uIPLm5pV79+7ff+HBy6u0lxgcY2DjtlTbwvQavYWabkt1PWr0BgrbkPdV6GWz0Jx92qe3R4cZss9tXiUwJmrjPqMSGIM2qAAw2z6XPTDG3UsIgE19Fj0bDL23RgpAqDNoG2PwtSY1wGTtWsD4fy/RA0zsirUADf/tcgBw0qpHqNjYhAUWAFNUKgwdw03o1ngAXFOneyjp4ybAAS7ASZnK0HKQgCYXgO+aJKgZYkq3xgbMrkeAmiGmwXc+wLsWAVp6HcyCZT7ARYcALb0B5oF5PsC7Bhla+jHm683xAe7j7dDSj7EAdGt8wI3ntPBjLAR/1fhAHi1DST9GDXCQETOaU8KPUQsc5AN5rAYdvQFqggN8+LGyDt4AtcECGxgr6tDBIcACG22ooMLnOJTeHBd1KKfB+/8MB7q1UuDHw4J2GfAiHBocKAEdNACa1rcfjejVLM9HM6Btd97AFFiyulU0ple3uBaaA2178yKTYMnaVtCoXt3SfDQL2pbWNw3mrSxA47o1C/Mi82DZwlaQANSty4tJHLSuVSQBTctqIJG2ZYVUoGlVDSTTtqpVOtC0KC8m1LaoFSQETXuKSLVHkh8iQFIwN4riEH1iB0dRGqGBxKBOhIbeR1glt0zDjkVmgIhcl0YaLMpbRHIwT6IN1llcyMB3ChuNXsTFDEDdPO7DkRe2iBy8J6/S+N3KCll4LC6Rht2Kiln44VVhgXTsVpCPPLwnK5CW3cpZYeKxqESKbmIGTPzwqhyupGphGR5y8Z4Y10jZ7kUssvFQCCdSuBoBK2z8cCsiNNKyXkSU+LQ+H28LcJUuTmPFfhn1yCchH5+c5ipd6ftQLl9B1JM5w2fk8Umu0rUddSxzFRFld1zAyA+3J3BodH0cDekAorbxQSucvHmYzZ0ObDwctyOIqAQ+os/Jh8eY2OhYh+Fg+zFEVAJfFXHy8AC77XR0hAIIhxFR3exlyMnX1/jU6PgMFRBOIKKWw1iGz8oPr17gYqVTM5RA6Gfc/W1nZauUssXLm3fYxUpnZ6gB205KdXd84+UjF0sjgRsUARcBQpzl5VcS2R1UAbY+m19EFIY2MGUyPwloHpeqAbh9Kj+c1iNDJyC0dciMK1UBQpvHX2f0bHC1MoCvs/jjuBYZB6oDmNQPOjcaasCxCgHw5ZALI6BFg6N1AjiU6bRkcaJWADjkPo89Wpyr2F0X9wsusdVzMDhdOQA85bgpgqVWNguR+v3reGXnr+IkL39STd5A7CRS/+HFQPZMQl6wLCvlaJGVx+vis/JwXSQr/1mYAScfLkzIyTsLE3Dy5sL4nNwujIz5+Bor0+Hj4dLs5+PDpfH5eHtpZMzGq2sTcvEMa7PIxadz2eR5XLwzlyhPdph4VV4bKg8Q8PAM8mnoNoDHwyfy/Fjk5MmQhTfl5cHqAIscfA3xhkZ38mTEwKfy8nA7y1th4G1xjsbP8hr0nkE6dwUoiJMdcp9I451UDOJa5F4VxjspGaTJiNhDyOad1MzSAmLvyLI7KVqNLBmRegbRvpOq3csKSL0niROpW4wkGRH6+laQb6RwjywoIPQhxJpKas5ORC3IkRGZr2+lmEyX72P1HkQtiAnIfAiZJtO121id8SFqkWXIAZGvb0XYTNebOlTT+BH1bEW0iHwIgaHSgRmDwQQgon3j82SHxDOcbnOnQ81wlzBEVAKf1SDx9kk2NTo4YjjoUERUNnOKXCHwEGfa1OjwHQpgOI6I9uROkJFxX796mAm504mNVUA+4251xnW1jPsQhxqfdjq3W+iAfNJdd8fUmAa5athjXO+23Oj0ZqEF4nnJ311neryAF5n1+kXstryTyJ2hB3yXkP6b61TGx9JkS8t/2t7Dv1oXc+0kNuG/6gBTxWT+5u50KuPj6zpQ1yMfY6mdZHcPZYCty8q8dErHVT0//k0DFoY+4DyCuKjjup4/SH5zuFgPwNQBxDkNd7X8RuJbwJWaAK7KE2eK3dfxK0lvAVfrApgs7tKpQk80/Py3sBZwoDYAxyZLXDxR4MrLYj/+TaKzw6H6APBZlDhf4Ia6WmTjTxLcNsbBKgEciiBxLt8ddbvIERLbksXxSgHgUMSIM7nuqQcFDgmhLVmcqtddn5oMcTrPU/Uy3yFhZNkMztYNgAk7fzPg0qkcL5S6leeQGH6NDhLVuzs2tcMdkrh0KuOKUupBjkNiuK1sDlKnkLp1eof7uz5x6WTaHaWUuppxSOhvJTqG5Hmkbhmv7HB/0yIunkh5mHiQsnFYaK0lBgf5k8ncOl5xdrq/5hMXTyReJNR1ANg4InL3WmP0jjHqnC40znnHcXa4rut+vYx4U6W+vA7Hv7iuu8dxnIpzDuNP7kpvgA/TlHr0UfK6EtK7pjKff5LlRb7PeivLjHyW9liWm1dpb0vO25TnsuR8SnlVduSzxJvS8yrxrvS8SXwoPe8SsvR8KkfSRrxGjy0kavXeMpJGr5VS7xiiofdlsmORWaU0WFToHU99sM5rtNHoRZ/3HHEfjoI68sNjfiqN3606Un76zEwiDbvVh9tAOna7NoG07HZlMim6LQtXUrXwmrhOyna/IJxI4WpWI3TSOfFKuEpq98ir4Cqp3rNZAVdJ/+Imx6HRHNtm5uVyp4mWwDMysdF0S+C52LjTpOtmZ+FTo6n3HIx2LlZawlY2pxT7WGktawpOFXaxNFrUvUTvhmO3pdppfXvNMTgrjp2LsVZa773WGGNwzrmD2DnnthhzrZ3+7///Tbg++9cNT9J0PXtfm66ff18ImqOebAYhswx6SQHg6ThFAKBOaQD1FQcZpwEwxsExEXIdCeZ3pmzlTkATpnIYf2dVZ9b9m3TzMVaWKv6lMVlb6exD9o9E4FhnL4bIpi2wrvuFiExbYH3Ts8usazjf9CQwRDZtAQBF3c8upvvC+rWba4hGmHUN55ueHln5Bwp2VQzUQcGuwJJGDs8c3eJR/oGCXRWDsLTIYVfHFy+NHJ45uuVxVXBv4M42jZCq9ajgPtpaBccMPhohVfu4Sg/veTUh8OBWehTLakBgy4TAw8OKm/NK52GybzfvYdVmMXQeJvv+kVCvbggdQ+kVQltuCP3AiqqqXMqqqnbSxwry39VzsKKqKgmNR1lV1c4H8t/V8w9w0Mx8ctDMXBcC3HZsjDFjqINm5pN0c3vumLktA+3YGGPGH6AjIuJS+CAiMioMyBqqIyLiUji7gYhoQSCQ9XEUAgYvtlTC2YI7YEsVgR6d+CSZpJGPlER9EjWUQgpjCgFvSfO8EzClibGOkIc0IfuHUHHSnP/xMhPR/Hua7+Xw2TTNSxFq3lob6+MBlCdm1pdse94e5YmZ9SXbQMPWQqp92NpBLO+gEPzjvUYpBP9wARsf/3F7dajXeF0eow71up0Dx5q216swqos3I0avwqhuO5givdH2lmMeBHM8Yqcnn+WYB8G8mUNNkYY7IFMovwwDbYCGI/aWHLUPmUL5ZRhoK/nXEqmjUCoKTTWUctrjzVAY5UM0crPWhrxoqqGU0x5vhraxB7qFIuzx1pNsWDQrw+Kwmlm2Ec09O/cTiYZFszIsDpKrH9Hcs3M/UVAOOi4kzhzU0E8eIhUn4zqmyw2uu32ynJ1c5yR6pRRSnEL5aUmfHKeFkvPm9z1Qgk7Gk/77/393AA==;" vertex="1" parent="1">
          <mxGeometry x="211" y="155" width="37.18" height="50" as="geometry" />
        </mxCell>
        <mxCell id="v258VC3TH_JYletUSXbh-70" value="" style="shape=image;verticalLabelPosition=bottom;labelBackgroundColor=default;verticalAlign=top;aspect=fixed;imageAspect=0;image=data:image/png,iVBORw0KGgoAAAANSUhEUgAAAQsAAAEsCAMAAADjImbuAAADAFBMVEVHcEwgHR4gHR4gHR4gHR4gHR4gHR4gHR4gHR4gHR4gHR4gHR4gHR4gHR4gHR4gHR4gHR4gHR4gHR4gHR4gHR4gHR4gHR4gHR4gHR4gHR4gHR4gHR4gHR4gHR4gHR4gHR4gHR4gHR4gHR4gHR4gHR4gHR4gHR4gHR4gHR4gHR4gHR4gHR4gHR4gHR4gHR4gHR4gHR4gHR4gHR4gHR4gHR4gHR4gHR4gHR4gHR4gHR4gHR4gHR4gHR4gHR4gHR4gHR4gHR4gHR4gHR4gHR4gHR4gHR4gHR4gHR4gHR4gHR4gHR4gHR4gHR4gHR4gHR4gHR4gHR4gHR4gHR4gHR4gHR4gHR4gHR4gHR4gHR4gHR4gHR4gHR4gHR4gHR4gHR4gHR4gHR4gHR4gHR4gHR4gHR4gHR4gHR4gHR4gHR4gHR4gHR4gHR4gHR4gHR4gHR4gHR4gHR4gHR4gHR4gHR4gHR4gHR4gHR4gHR4gHR4gHR4gHR4gHR4gHR4gHR4gHR4gHR4gHR4gHR4gHR4gHR4gHR4gHR4gHR4gHR4gHR4gHR4gHR4gHR4gHR4gHR4gHR4gHR4gHR4gHR4gHR4gHR4gHR4gHR4gHR4gHR4gHR4gHR4gHR4gHR4gHR4gHR4gHR4gHR4gHR4gHR4gHR4gHR4gHR4gHR4gHR4gHR4gHR4gHR4gHR4gHR4gHR4gHR4gHR4gHR4gHR4gHR4gHR4gHR4gHR4gHR4gHR4gHR4gHR4gHR4gHR4gHR4gHR4gHR4gHR4gHR4gHR4gHR4gHR4gHR4gHR4gHR4gHR4gHR4gHR4gHR4gHR4gHR4gHR4gHR4gHR4gHR4gHR4gHR4gHR4gHR4gHR4gHR4gHR4gHR4gHR4gHR4gHR4gHR4gHR4gHR4gHR4gHR4gHR4gHR4gHR4gHR4gHR4gHR4gHR4gHR4gHR4gHR4gHR4gHR4gHR4gHR4gHR4gHR4gHR4gHR4gHR4gHR4gHR4gHR4gHR4gHR4gHR4gHR4gHR4gHR4gHR4gHR4gHR4gHR6asPQ5AAABAHRSTlMABDqV2fn/+tydQgYkjeb+65QeEmzYwSkHS74dAS+f8aEOGXvhfwtayvxeAzut9uJAIovpzScRadWxFEi7/ZEILJrwbxh43+pPClbIMwI4qfW/IIjnoA0PZdMFRbcql+4Wdd3MCVPE+zWm9JCFYdC0+DIo7RWD2oBdbl9ghIeyr0HsxRPPlvOSK+jRHIzvmEyuuHIlwJljPeDyPluq23xXOQyeeVwbvJwtgnow1iFJUh8QMT9RWGJrho66yddKoxpUZHeJm6W9y9Te40flF4FOUPe1N7OPaLlDtnR9NMJ+rMZxim1GNtJZZ87DqDxVpyOwJsfkc6Iudk1mcJNEaquk2m/UOQAAHnlJREFUeAHk2APaHEAYBOFe9W/btm3btm3Etm3jqjFXmTj55j1FPYV/mcFoMlvo4urm7gHNeXp5+/AtH18/f+gsIDDIhx/5BIdAW6Fh4S78UngE9BQZFR1DK7Fx0FF8QiJtuCQZoJ3klNQ02hGTDs1kZGZl076cXGglL7+ADhUWQR/FJaU+dKKsHJrwqKi00Kmq6hroILK2rp7fkt0QCfkam5qpoKUV0rW1d6RRSVAnROvq7umlqr4ICNY/MEiqGxqGVCOjYz5UID/GxycmLVQhP8anpmeoQn6Mz87N+/BHLBRBlsWl5RUqkB/jXatr6/xhVRuCYtx/05sq5Md43NZ2FRXIj3GD+84uf1rQHvz3Ivf67eMPknbG9wfzF4kdxn8u8oAPncs+uEIVLocM+M9FFNKZqu3DR6qoJOYo/nfHdumY93F/nNAnxodP0pH1tdUujJ+itSoXqTF++gztWjm7tAjg3HlaK7hwUWiMZ1yiHT7zc7N46/IVWrt67Xqa0BgvMtPGjZtTeO/WLq2VGc7dlhrjDSv8muXOxDg+uEsb+cC9VKExXn6fX/IZGx3BJw9ozechgEePhcZ46xN+dmWgH5+1hdPaxad441m9zDMeGsuPep93Z+ALES9o7XEe3sh46SIzxjtz+E5ax+vy7sC/xrr9A/jnlH2OTG6IVo7GHqbT0RBb0GlIWBxGs2mRYTkaadlKUj/WMkaLeMIQW5BAFhEICiYwCvUEBKkE4qno8XuBbN/7vs+5z32fczb1/hvY97rOdd2fa1oUisgJpqh3LK7Iff9vWowPlEiy1fSWEMywU1Tdgqtmzvp7FuOjGpItPphtgehDyszBdXPn3eLFuCU+MTSuUkLV+Yko7NXsWQsCIWObQpH5I9wwugEV9VqIEsUWGBWblx6ycNyIj9svarr4kyVLx079dNm71af83/IqK0au7Fk5B4XVWJUOBRG9KEr7GDdY7gqjAvNnCShGjhqr6w+olrNqzYy1g9bV+nz4F+sffGFD742bSuVvzkzJjk42WyWJRYR9CQ3Ct1DUaCv+ErTMSpnsbTVQfGpsf7vtexPLpWUnm+2SRE3MO6DBlwUU7QzCTQrF+ObB8Sg+u74Ko8fsn0CDuyjzNQqTFeNvDkUx2p5PPQZDgwqU2Y0iJk1kIfavBqAY5eRTl6VwL3IPRdF7UYhQjBdUSEAxivuG+nwL91ZXpmjzONwkFONpYxNRnJ4toD7/gXvfdaeobRwEfxXj7y12oDg57qNOT8K9aU6K1jsgulaMS/v6oHhVakidHoV7+ymzH3IfzyOd6yuimHWLoU7N4ZZjPUXOaVAwunXSa3EobguSqdNnFrgT15ai7t9BgWPJkngUu0HU64AJ7pStS1Hl1VBisaD4DaNeLwTCnb3RFC2PREmV+Aj12pAId3ZTpgJKrNWlqNfBXLjzNWXughYOFIM+WdSrVxzcCNpJUcGX0CB++qH6DvjbNCd1kMwF0UlvpMONrY0o2jIAGszeIvUcPiEK/rWfLkh2a0BYRouUmJrvNXqzbceuY9bfUeHwtnXfj5/80YIyOQNscGNuGkUbI6DBVJLM2vlACPzIsZ6utJ28/ciko7PD61fdGpEbFRTvgEeeNVM0xQb3tjbkVeZjH34cD3+Ja0tXWiyBEU/MSzOzqJegwfEAXidlrt8eAf8ou5kuNdgBA+K3zv1oeufeEzPsvM46Ge5FDmEhYQcPjXPAD8pE07WeE2CQI3f+pPEPNR7ZOkAiW7SHezlpLMLeali9UPjcDxLdONEM3hCfOnv7tx/8eO8ouPcWZYK7LplpgW8to1uzKsJbLKFbHXCrU2UqMG/q1y4QPhT4At37qRL8areViqTWHT5Kh88kbKJ71uFR8KPYDVRV0LZHuA2+Ua08NUj+lwn+cySDLthrvrs3F76w2EwtgrtY4C+2L+hG9vIuVS3wunUUGS8zDLq7Lt1yrvz8aBC87H1qVPpn+Mnj1EIqf+BkE3hT7j6KTtSlooYj4BepK6hR8sbp3UzwmoX5FI093p2KHqkKf/gyg5rZN9/xZSy85OdsCgJGY2wYFf1SCX7QZMk7wdQuY8PuhRZ4w6t2Cho0Q9DnTiqxPhoFfwitN6yVnZpZS73VPhDGvU7RyFQg7j6peMsMx7ixB8OoXdq7p2CUaQxFp+MBhLxARcFrLfCTiDbrMyVqtnEXDEo/QdFhXHHmLBVltoHfxH/84TEztep1xuujVGk8rjq6kopK14EfhTywM4sa3RcEQ1YlU5CxCNc0PUdFDbvBn6ImDO9ppRZZi2DIYxTVrI/rXsmiouVV4VeOU4N+jKYGn3t7lPpGLK6z/RpGRc9FwM/yRn9WTqI790Z5eZR63oEbIg+rlBl9o+Bv8Rdq9Q+ga/O2woCZL1M0BzfFdVYpM+aY4H8tJ59Ok+jCyyEw4GgWBc41KCRkJxVlP4Hi0OkniS6syIMBx60UpLRDYWfaUsmK7+B/sZPPmunKFBsMqEXRvBAUcbQyZaRvzsDvgr7cWUDXXoIBjucoeicIRcnLDGf1EPibrU/1FnTDPsPLo9ThEIllRthDcdAs8sWHlw3r+337UBhy5q0YutUiBwaM2+x+Z0YsM1r0iIRWpkkdykskpayvvjRBt5D/vifRvdJVYYB8ryzsCGQiC/+aUe4BG7Qa17c8b+i+PxT6xD3fy0otOobCgB8o2hKOQuRlRqlV0Cp9UCmJNwX0C4QOkb8tT6Y2H8CIr93uzAhlxopd2iPzOzpZRNJuCzxlu+25bGrVAwYo7JV1sEHuxq8ZUtdwaGO5cEcwRZmr4BlLt+ENqJm5DQzYusn1Ey2UGc7zq6FNyJyaVDBvLjwxamq+RO3KV4MBc8trf6IXbEl+Kw+aRE1bYaWiDaOgWaXfPUxy27QVBuwwUxCcAzW1/0iEFrb2U6Ip8vi0RNRHHQPomZ1BMKDs2Ob3lg62anuiLQ6NUb+ZVGfeZoIG8YsOJNFTfWFQVNX2M17q0GtLgcQrOkYZjvq105Xs5+GWZfYzafTcw/AGW0T4kaUX31mZwi9gRPwl91G/5y7BjYXb6tIdSZIoCLsE74kMaTctBwYMGNad7o0cAZdmNLLTHeuKrpJ6lVj8UseWlqhF15Zw5b8S3ZBKr2t5WLVKLH6RO/Y5qY3UPBQurL6frmXeGY74xsZ/yPERy4ufZVCzgDk2uPB8AF0I/myXDUgdSdFrKBFm1jpHT2TVhgt5e6iqoOuCIACY3YAC+yvQLaiiBd6RO6OhnZ6ZOAku/Jat+ifzlRq4anQABcF1oFdUrRN14A22CUPC6LGN4VAX+RyVSJV/bake5Ja/EDpVGp7MXt1g3Kk7W1OPxqlQV6cB5bZ8XtZVkNu+XOgz6herV9avIv6cJ1EX+8VEj1Ifs+5r58BfEmdR9L4FugxYLvGKn9JhROCCRwKoV8GvDqgakc8iwr56OhCFzCxF0ePQZddGXmO9GGrkMtMXLWhAyhqomyoVCUQ9nutu3Gf+CHosKMUbAvbHQ6et61rRmJ45UFW1P2+wNxqUCsE0KwVpL8JzthlbeFPGwxbokXjyoJVGHTwFVT+Yec3m1+Zr+XJyXkt4LOhQdxZWfg085zj6SxK94H+VoCa9I69IaV7NARnHZfVxn3axn0azqIll4KmgqTH0CutbQVDzbBIZPWZoPBTUOEvRRXgq4QszRU99DA/Ff0A3JLNELaLvskBF1IP2KidDoehUXYrugofmD7FT7sf68NCFVnQpoGtzKzVpvR1qjnZJh4p6SRQUNIVnLlShosZb4aHpdqqT5j0cO5X04dG78RIFMXfDI4tGUpn0fhw80/IsVbW+s77SHzdJoqIqC+GxwxQ1rAQPWBa3opr8j+GhadFUFjbkZxtQ4yBFWV3NVHQ5Dp5RSuR/0ATtTF0aUE3lpvBUVAcqsfeakQsA9WtSNK/ZFCpy9ouHZ5r0p+h1aJc4J5tq2vaB53JiKLe51kxctSiDouVB9c9SUUYXeEaeyG8fDM0ivk6mCqnrGehgeZ2i7PMvWnDNEomiYUBOaSoq19Tw3vYEaLX6spMqrJdXQ5f5x1iEc1+bSNzwJGUeA3AyhYqeqmZwb3vifGh0pqtEFQVfR0CnLgG8SXrvUBP8JX4MRcn3AHD8WkBFj6yGB55RSxt37+gKqsmek+iVnMuUCgNQSKUTFGWOAIDEi3aVVz0WmkUuV00bd+fISqpp0MUE/Z7uzmuSv9lrQmF3x1DUvwmuSG1MReb9JshozwP9F7RwHN9MNfmLLTDANIxX2I+trYGimhZQ1DgeV4X3MpwTL88DdZ6EBoGDUqhm5CIY0600yZjXF2oJO35IjPYVbS4DjZ6wass6FOS+lEQ1/74Ao361Rk9p74DMcMp0wQ2Ts6iofzi0add356byZsld1qEg9e0AqrCP6QTDtr59PApyQV0pih6KG2xzAqik7QhoFZhQbUePD/7d88YazfJEuLPwgJ0qzM1T4QXxUNJyHkV1y+Ivuc0lyljHlPU4bKZizowPf7r/XBiHwZ3ZHakmul8sfGdumuuw45ZdKQr7Oh262PLGXfpzEtyY8CbVdP8jCAIfp4v8YkMhzUayqPKPRcJ3LG16Us25yTb40jrKbEMRT2/hDb7PwTaNzzTQoht0B0WyqLUl2byp91H4UOK6YKpZcRS+Ffpvul0bNX1o5nXOnzrBh/LuLKAKe9dw+FjF0hT1rAhBjeq8JvpwBHwo9xkn1fS+4ICP5QRT9O9QiKreyysaPBwEXzoUQFUpDU8fXlvvVJwDPjPZStEdkJvbiOTK0Rb40oX36Jo9qe7Z9bWO7xoVZYEPbKPMOihYlcl/vwjfetJOLawt3rv3ix5tqm0NhFfZfqHIvBgKLD98UBHeEKcetNWf2knm8pt29v3zyIBKJnhJ3AqK0uZCiSkIXhDU9JstZaAimp6Swsr1OvDp4AmdYh0wrGxd7QsBxtlyLgeTB6KgjDrZMyb2Pj+1ngXGDE2iqGsQvEv8CCvpIyhz0og7LDCmi0TRRfjGwoGtJF41Kw+KJtKIx2HQQ5S5C76Q+v0mO68LWAJF52mA81kYE3+aGhYCjKsx+aCTN20MgZKmadQv5UUY02Qk3S4EGBe5qmsBC7N/CyVB91G/eSEwRuH8+Il0eJepzvpgClaegpI+5ajbO5Ew5ulgisbEw7tOzaPcpxYocDxE3W6HQekLHrt9eeUUp6R6+Ms409uUqzsXSs6Uol6DvPTl2po5nX9slW0nSWkJvK1aTcq9bYKSHnbqU7AA3mLJ7fTzq/3+t7Fc+UXwun6UKz8JSkI2Up/MbvAuW0T4pDh43amVlPspEUoGJ1OX/k1wa/jVTpns7VASt4dy9tI1kyS6NCQet4aQ+ym3Jw5KRmdT7mLZoWsfOt0/M1miisO4VSwJoEzyA1ASuV7t2YlvMmLVY7cvX5nipIy0FreKiEcod3YrlOQ0oNwX8YWfvemd911/9m5IGopbxo4Mylj/gBJHX8qllBGevYV1XnltysYtYRKvqnsKt4yoA5RrNF99U0Q0JBQytrwzl3Z//cJTrQPYNg63jqEplPsQiuZIlIl+Qn2nYfb2Hl1suHXEf0G5ibOhZNQJylVpgr+NducoV8EGJV3MlHH+ib8Ny2HKta4DJREbKHdsIf42FHvQ9UFQsjiDMlIt/H2ss1MmeBWUJHag3MQL+NuY2ZByO2tAyaTylLvdhL+N382UKZgMJbbb3fX5JZ/DAnWVOlLujVQomd2KclMSceuwjG0+qOndlWxQdjKaMs6lUDRQokzGYtw6ojpSKohp+L/XXsmpGgWZ0NOUG7kQShYeo9yGSvCd0Gb31N7xXYTXN56swaU7Nh87ulm6CYU9nUUZaT8U/emkjPl3+Eql8bMyA6zm7ivmdIJX1AlmIVJAg/5jnhz888JcC64JvI9y+SOgpEkVyp0YBZ8IXLXBzGvsx3Y44AWv2Cljz261744ebS6kBqpNg752QMkT0ZSR/gUfsMz+oAVvav2KBcb1owopoPWx/3tr7aJTzSkXswtKQsdQrmc3GOcuHSRmAQwzHXC3e9aqtJ1y1QOhpEwK5fo64F2Ja+TpIJuqwahKJ6hLiyNQEt+ccpm3wZsc3z2XRLlZM2HQ3THUp3EulMytS7nnIuE9oz7cQkX3xcKYBQXUJ2walFj6US57NLwl94ETdiozDzTBkMeoV5V0KKnfiHJ78uAVtgmnC6gqeDAMeYZ6OXdD0WNWymTcA2+o7yaEbvNeg/eUdFMpohIOUmBvNCgdxuXtbiTRtf7djN1T0s3+OBTVLmARm1/rBOPijywPoFvftIRuu1pQv8oDoCT2KxaS8m41B4y7++0saiC9Gwq9alupn3UqFH2ZxRuihwyNh3Gpv5aWDGbaureNRvwIgdDOmfetCfVK1vGPTqOZtu453qcRmYCL5T77sT/TYZzl4/PZxjNt3bOMOD7wlxXnwiTqkuFqsFJzYEV4wer9m+mZjWegly3uzKU/h3edl+Kkp1qrD1a6D2tmgXGhxzda9WTaGhLUst3JqZ+drZskUbu2UGFpM9QE42w5B8IMZNoa4qhxaujvy17YlGamFvZ+8KlOn2cay7Q1LjBh7uLHO/dulWGna/lz4UM11h6TqFPKSXiRI3f+pPGHT/dvQVXWOfAdU5lvkqlf6Rx4m6P9m1T1UwR85szFFBpysD68rF1vqnF+FgJfSR/0suTdTFvjjsyjwP3RRuMC7+lopmHWO4PgPbbJ56im+9hI+Ih4uU2v6O8t8JbIsVlUs7m2DT4S9BPdkSRq0boNvCTucBjVNHoarkXd1mdEp4S4RBM8tz2YrpXvGk1NKn8Hr1hd3UWWw4two1nN7MxW8+6fNaZz34F/PP/R3qMjtkKroPfpSnLXRW0KqE2VhfCC8G8kqrCfru9RLIVkN4cFp70OzebWpCppU5c4PEat1ufBsPb3U01A8wS49XSykY8C/mWnigaH5wMYRpE1xk4lztcDYdDol6km6aVcuLfGScEcaLe6LRWFPVjHBiBxOUXZ43+koozfYYhpSQzVpC0N1Beq/Sc88Em0ctZxqFqOZM35R3tSxvjMOWp6MNVMPOmAFr9SYK8ND0RNocy5gTNxTbsUig7WUM20bVQNukX0LaCakfWgzYcUmEcbS37OuHzzbM4aM0XrHXB8W0BFs0ZBp6q/WKlC6ngBGg2nIGORkeRnZ++PIvGXOZSpJc+0NT5zHjFLogrrlIXQyHLe6Gf8nfrzpvweCbjJ0pki6ycuM223maDDhBNUk1whHVqZGlNQ7gw8Mz6Z17VoPgKF5e6jqMVRXBG+kYqyB8NjlsX5VJP9n1BolrhB+5l7lTq9xgu8yjxrQSCK6JRP0XtVXWfanrsED8Xvbu0ixTke2uXdT8HIVCh78ZdnoahMGkmp8tJKENTJpujeKFxTWy3TdgQ8klsrg2p6trHAA1tXUvBGLpRE/Z7PkeNUb7ClPToOMg/YKfoC19mmB1BR19XwxDoz1TSsA490qknBO4FQcKZ6Acn3E6EkfOQ39UyQe40y3+KG0OYSlYTNgCdue5nKpOXd4JlmDbSc6A88+ZREkmHjocTRLQ8KbFMoCmiDv7T8hgpazMmFR0bHUIlz/Sh4qH0LCppDZmbfbF5Tei60y9tIUfkLuGlEf8rUnGyCh5YEU65gWR48tbeAgocgcBw5KPGGMXHQ7Mw5ijYloJC95yhouAgeM01PpqjFukR4bLHTXQh/+v7yvMn8LTS7FObuiP7zwSzM/tUA6BD1qJVFlRtsgueet1OwFIVZ2r/jZGFbJkCr3W6P6JsGmnlTwe0J0KXSTyyi1Crocch1m5o7aDMFGxKg0TL3R/RjO/Mv3XtEQaeKG1hI213QZaDLNnVEh2SK7K/ZoEngCxSFHYFg5ixelz/NBt1mv8kbpJ1noE9fF21q0CuVqSDlHmiS+hQ1HNGvtolXrbgNRixqxWvMnUOgj6Wzepva6e0kKrp/IbSY3ZqiXhGQWVCOpHXMOBizpjyvCHuyBnSyDVFrU02/9ZKo4vZAaPBbAEX/M0Hu9yQWPJoOgyxLk0h2PxQEvRJnqbSpW1/vTlUZM6DBWMp8CgWBr2ceSoRhgS+ZjQ0J49oqtqmWSR2tdOGnRLj3LkX2V6EkYpcJXpD7xaanYUBCIwreiAXi/htDFzKGddL1T44ZE+BLqWVhRMWJFOwJxMenzXRh5eQgnfvrreajBOsWQ0GH2LU96ULyL3dDkz5ZyrfXSiz5RfM9ncPoQs27cqHNE06KzltQgpUJo8BspzrnN0eh1VTKTIUXmeBlO8z0QOuplaCV5TPquL0m+LgZ1CQ+9OSRlg540at2amZ/45IDmsX2pse31wShu+uqN4LdtjB60x2vhAfBWx6jZsHLVsMD9SdSVGomPBF+uYD2lxxQNthKks7NX32bkwev2E+NpJHPxsMTMy92LN3CysIeSYR2gZ80Ism0BVDk6MzrpKy2b/02ygTDllGbsPvKwkOWqKq7ag98rm3dJDuveQbaVayQwavaVoSS1fNYSHKpy2ubBcGY96lJz/GJ0McWd6rejXDQQ9DKtup+idddDISCVQUsyj4xB4bYHqQG5iHVYMCNcNCL7aFR6msp/Ev2J1DwJEWlKsKQyOV0r9y3cfAny88brCzkqXDIxPWm6LINhsSdpTvWeydY4E9x35ZjUdWjIDqaQoF9LYxJfYpudO+XAL+aO8ZMQcHvEB2iKKYZjKnaii5JG+8xwa/6vEy5ni+iqMDTFC2PgjEDytGVpGEL4WchVahgSByKGFeTov/AoO+6U5206XgQ/K5eDOWcPVDEcScF2fVgUL0wqku5q5IFfmd53Ek5YVr3LkUnmsCg7Waqswe/+cy0soHws4j/o4JZCbgpYSRFt8OoB+x0zTxxyB99asCvvmtFOXs/G/5yKYkC80kYtZTuSSlvfH7PTBv85+FkN9O6bRTl14dRP1Cbgsrnl4xIhJ+EXqaCFRVxXe69FB2Ih1Gjk6mVNWbPvyY1scAf7m5EUeEmbW5rir6HYWVb0QNS9okKa+bHw/dqZ1Au+ziueViiIK0dDLN9QA+ZWx34vl0sfCzwdirYNABXmDpQVCUWxh3dTI9JaT++Xg2+tfB+KvgsCgA69aSoH7zhzwzqYB8PH/utO+UKfgCAjwIoiP4S3hB/KIWey7wAH7N9aqdc/osAhlO0KQReYWu6J4memhUKX9t6LxU0zkN6L9WDpsbVuPT6vjQ7PVELvrdIsUn7LyYEU2B9BV4U2+77B1sFUKuMMvA9yzon5cr9/DhFm8PhXfH1T1ZomC1Ri/4J8IO8xlTQ+36KXoiE11nSJ/1rT4yVbr0Nv2iXTznJTlEP+EbiiCXnVxbQJecn8I8fCqhB1m3wGdvMVZ+/0d1OVTXLwj9CP6MGbSPgU3FH/xgy0UxlpwPd/mfrU/u/T7617c8FZSNhxIBGdG8ZfC7w1LRn3syQKHcILkVOuLNXdytJSgV1v9pd0QL9jmfQneTt8AdL6tD9j2RaWVT3Xa5zfqdksRDrynUtoVtgBbrzckX4S9TsLpdLFbCQg3lQV+nD1hRYe1+yQK+KK+jGehv8yDbqt7fOZknyD4/kTg2xUi5zdzxcik2IDTJZoOSeFLok/Q5/y9s1tnFdM0kWjIaq8CpUlNEjHq4s3XT2kQff77tt7JJnv7ztwqmZ6aGBNlzjeMlOVzJnoxgEjavd/FgSK4+CmpB3qCK7C1w5zGskyVoQXP7cy2/27tqh+Vv/+f6BHXv7DH2KrjwSheLhSNj72nQTVAQNk6hmyyK48C4VSZIzOqtBEl3Zj2LkgJonkqhuVjpU2X6hXtlDURIlHKQLzrugKmgn9XozFSXRWiddabgVakL3Ua9hKIlCl9Ml83GoiThBncxPoCQ6mkLXztugYnVl6tSqPkqiu+hGoxCoOFWXOj0Yj5KoOd1o0R4qmpWnToNQEkXuoUjzZwLtg6lP2ncoifJ60Z2HoeLpMOqzLxYlUaWn6M4hqHjWSX0+RYkU8Sbd+R4qBlOfsKYokUI70g37DKj4g/psCkGJ5FhPN5KGQkUt6jPcgpJpDt3I7wQVX1OXc9+hhNqbRNf+LwgqBv3Yq1TdBsHJTokeSP7VghKqSS+6JH0PNbbQiJbzZ+c8/ez4sdserX56w4p5EzOzwsx2iS6EPRmFEus/dKnnGWhisSXmbV3Y7WiZHa8+tv/OOx5cfvCp/HIp0WarxELsK7tEouQKL01XnoQutqAaqaPC2y0aPXnpnM/f7TDkq44bV+YfOz1oPkq0dVaqazQOXuCwmaIits5sEogSrsk7VBX9Kv5Z2lWmCuuyIPzDNJ1IRfbqEfjHObKSCgLebYJ/oLlfmSmK+TYX/0gRf6y0s7CMB29z4J+q06EqN7Z6pOT8zk2j8E+WV296hxWlXt406/ZXw+NR8vw/R7jnAOaaF5oAAAAASUVORK5CYII=;" vertex="1" parent="1">
          <mxGeometry x="820.5" y="314.38" width="32.04" height="36" as="geometry" />
        </mxCell>
        <mxCell id="v258VC3TH_JYletUSXbh-73" value="" style="rounded=0;whiteSpace=wrap;html=1;shadow=1;" vertex="1" parent="1">
          <mxGeometry y="50" width="920" height="40" as="geometry" />
        </mxCell>
        <mxCell id="v258VC3TH_JYletUSXbh-13" value="Moroccan Law Chatbot System" style="text;whiteSpace=wrap;align=center;fontStyle=3;fontSize=20;" vertex="1" parent="1">
          <mxGeometry x="254.87" y="50" width="416.25" height="40" as="geometry" />
        </mxCell>
        <mxCell id="v258VC3TH_JYletUSXbh-76" style="edgeStyle=orthogonalEdgeStyle;rounded=0;orthogonalLoop=1;jettySize=auto;html=1;entryX=0;entryY=0.5;entryDx=0;entryDy=0;flowAnimation=1;strokeColor=#007FFF;" edge="1" parent="1" source="v258VC3TH_JYletUSXbh-75" target="v258VC3TH_JYletUSXbh-67">
          <mxGeometry relative="1" as="geometry" />
        </mxCell>
        <UserObject label="" link="https://adala.justice.gov.ma/fr/themes" linkTarget="_blank" id="v258VC3TH_JYletUSXbh-75">
          <mxCell style="shape=image;verticalLabelPosition=bottom;labelBackgroundColor=default;verticalAlign=top;aspect=fixed;imageAspect=0;image=data:image/png,iVBORw0KGgoAAAANSUhEUgAAAIgAAABICAYAAAAtUr3mAAAABHNCSVQICAgIfAhkiAAADE9JREFUeF7tXAmUFMUZ/qp774UF5HBRYJdLARW5xBNQUBKvAAZ8L0blRbyiPvOi8cZbAngkMVEwGjRPhRAMGEDBoCjeRxBBETkE9mZ32V122Wtmdqc7f3Uvu9PTPb0zMLNdgfrf6zn++qvq///66q4uphNBkvRABA8oEfiSLT1geEACRALB1QMSIK7ukYESIBIDrh6QAHF1jwyUAJEYcPWABIire2SgBIjEgKsHJEBc3SMDJUAkBlw9IAHi6h4ZKAEiMeDqAQkQV/fIQAkQiQFXD0iAuLpHBkqASAy4eiDJNbQjA5vKoO9fAT2wDyzrbLDjLrbnzmUq3oTu5zJnkswldhkHzvY9JVi65jNLyMyp49G/Ty+b9Kr3v8ambXtb+SnJSbj/pqk2Oc7Q8h4CgvWOYZGYSvZMIHO4c3DDNmj7FjmHReIqKVD6z40UesR8MQASrEVw40igudIwiB9xU3IeAet3X5uBXGbTWCBQGiLzEMk80K4TCvZV4JUVGyxyk88d7giQTzftsIApLTU5IkD0fX8lnavbzT9UQO9yDlgEgOi+vdBLnospPShpQAIBIkQXo1etaQXHIe9o3PkhZMi0gKNNJsbaFpvrpTR5QAiAAKq9MLRAGM9BVc1njyc5cfWAEF0M605jieQeQFNFq3HKibdYDGXdL21XJq6eiSIxpc/voMcIUpYxLGLKLH0wdZmzI4Y7BTCW2CJMbOpOFjnxlAyoIz+DVvwXoHEvWPfLwLJ/ZZWMRsYp7QTyWN+7wOKZfvpJNPZ6MJ4pHnFaYgCEm5GaA2XA0+4GRSPjnoIMjdEDDh17jClI8aPaAxIgR3XxHrlxEiBH7sOjOgUJkKO6eI/cOHEGqQ62HKxvxO6CMmR1SsfAvsc7SHjL2rh1D5qag61KJCepyDmxJ3p265wQxfYfqEVBSQUCTc2t6asKw9jhgxKSH09UOIBUkBP+/uaHWPPhN9hdWGYx/PyxwzDtorGYOmlMwhwSS8LX3b8QNXWNtii9e3bF5ReMxg0zJqJX9y628FgY5ZU1eOmN9/E2+aO4rMoWNTUlGTvf+aONHy+GUADhjnjqb6vgD6khoYZu+Gob+PPC0nex8OFZjnsp8XJMVOkw51WQffur8eKy9cYz+9dXGEA5HFqwZB3mkz/cKIIKblFiChNmDHLfH/6BJxauiAiOUKt+2F2MS26chy3b82My1gthbtMd816LOetbH3u5XXDEnOhhRBACIHyndclbn8akfoMvgGvvXYDK6rqY4nkhvHzdl3hswfKos77rqcV4a8OmqOUTKeh5F3PgYD2edGhGLx43AldPGYcRQ3JQ1+DDdzsL8dCfl6Gk/ECrP6op7nOL/4OHb/15In0UMe1vVz5pCfMHmvDND3n4aON2PE96hdKif32AmVMnIOcE2nNyoa27CrFs7ec2iVuumozxY4Zi5NBc8CMIHUWetyBLVn8C3hqE0tN3X40XHr0e5406GZ0y0pDdoysuOuc0rFv0APr17m6RXfp2bC1PIh3LB4xnnT4Yd8+6HC/PudmW1WsrP7Lxwhl8gB5OPK17rv8Zzh4xuEPBwfXwHCB8dB5Ko0/pjxk/PSvcR8b/zplpmHvHLyxhHFyfb97lKO8lc9LZp+IKmnGF0tqPNrerEp+9hdIUmrHxtLwizwFSVGqeIjvkgOk/cQbHofDzRg9BZnqqxV/b9xR75T/XfKdddIYlvIimqbxLjURVNXWob/RbgsNBFiluovieAyR8HaHXcVnt2npSbm+LTFlFTbtxvBDo0c1ui9uguq7efgCKd69ekucA6RG26lgcMgiN5JjwVqdLVkYkUU/5pRX286rhrV+ogmlpKTZ9Kw4ctPE6kuE5QMJPlof3weHO+JhmCHzJOZQG98sOFxPi/2o6IR9K3bIywVdZIxFvPblMKL3xzheRxDuE7zlALhk/wmLoF1t24dUIo33eR/MFtXAaN2ZIOMvz/+999h1WvPuVRY8LaSbWHk08yzog/ff6jVj36bftRUtYuOcAmU4zlqzMdIuBDz67DL+d+6plzYM7/NKb5qMwbFB71WXngk8vRaBGmlFxgM97aSVmzbaeyuf6RbPkPmv6BTZTbnjwRTy5aLWRts/fZAtPJIOJcNPyays/xuxn/xmznZoWhK8ij16kaQZTk6EmpUFJTYeakglFtffnoRlcM2U8Hv/NlbY873l6ie29mB1rnTfDcifeZrzDEx3p0IO086sHoQUD0Jpp7Udrot/NxOIP3xUOgl98nZKVjaT06Db5dF1DwQcLolPhMKQ8b0G4ztfQiilvCWIhncAROFBkOJm8aj68uIzf5stXvPAiPVocbiCPGhw8r7BdNaqZhqr8gxcyGdL6u+lgKZlln9HE4p94yQoBEG4MXwB74OZpUdnFneeryicn2rfao0qgA4WMq/AJHM77vs6KcMD4qgrQ3OjtDIZrJwxAuDI3XjkJa168F3w11YmCvjr4q4vhq8yjXiX8xSqnGN7xODB4A8EOdz+eQBKoKTHsNbojj0iIMYiT7XwNYW/RfiMoL78QqUnOdTBIBeH3BxBo1sAPdzVrOpo0RoXTJs8Hj+ELVDOvmIDTBvWxZc0PKZVXttVctxNbr6/6BP6AebqruLwKO/NKoRAg+FqH84aaqZXCtWO6UTsVhb5JVR5PoR88P1VV6dtad+sbA6ht8COT9qb4lsMhSlYZ7rxxhs2OeDGEBUi8DJTpHJkHhOpiHE2pc9ngoqsiwl/odkpDL33Zid0+r442zvhzDJPwAAn+eHvE4tGr3oF+wHruwlE4xbp34yjTwtQrV0MvannDT6VVzaTopptuaf4/h3l+YEgvXwK9/nua5fmg13wMddRX0Kvehl79AY3waAGsqdz078HPoe1/gzrrNLpoZjnU0dZVSu3H28BSToRe+1+wzmdY7hbRCudDpQtptPxHoHSdBHQZh+CW86GevoHu43geeuMe0mEz1OHrKf6XQO3XYN0mQ+etB61bsOwBRlxjXtq4A8rQpQDXp2I5WFI3IGMIWI+2Q0t65Sqy5RPSmwaqBGJ1zHdA/RbjNy3YAGkDSX6acd+JYW/Z67QEUg12wm2mrXTNRXDzeVB632DqQOmDX5rTaTjJ3Eq+IT2r1hr+0cuXQj1zb8Iw6DlAtKJnyEm0Z6E1IPiNuRaiFcyDeho5QO2EYMVKw3gupwykmp2aS75cb3GIXv0eASfDBEXZq+RMWh+JhXQ/1NzHjRis85nUatB+Cb/kpaV702v4IR4VSm7bi9Va4VNU0P2IrxN4HocaAhAepg5fRzqlI8hBQaTlz4FyEq2uEqAMcBJAWLcLCYxfEuCXQRlCeocQyzwVrO890PMfpQtn6DddqMNBoxJAtIK5UIcto7SOa/WPJXIc/3gOEJZEJ8Sa9lNXQQ6l2sqJ8S6Bxhf8xh00txz1p9YBvkLi08zGl291ZmofupaKwoJ1Ri1lmS17HvzCmZS2jTxGIOI1m3Ee1UiDKH+F3tIP7rjOdDqjXtdYuOJkzoRYal/oDT8YHL30FbCe0wkcuVD4d/pAwsHJprg/zwAwS6F3ePh1WfXbSP+Wowi8q+JpZAylGYy5NaBkX0vXWD1G2ONdGYGSX3/BbwziRLpyYjyMgGb+MVeHWcoJpH8JtUpboxqDmZEP79NzgCgDn4G2+06quaOpRk00rFAGzDdqCajgWU9zCqfk3E+18PfksSSwXr80vo3C5+sM6dTE8y5kxyywrhPMcYPWSM3vYrA+d7Z6hvW6Etqu22kNpYryoq6GiOer5VEtTc0xwMI6jYJWspCOr40y09dppTZtgHElhbZ1Ct2NRqfE1M5Q6HosrZBaNLoaS8kx7/TQiv5ErRw9XH9qMVgapZk+yLQp9xFoO2+hpqSR7hR7wtSJ9IZKLd/xVxv/9VrqNpVU0mEkgXyYKZPaj3oS85gl62RubCr955B/5tB9Kb3IF9YTdmak+H0e/dNcfz6C388w+vqOIn3fS1TQVNupi9TLFkM5ZUVHZR33fI4JgCDYYDTtHUb81qHajTQ6oQEuDZgPdRcdln8cMzr6ARJHZx2LSQm/DnIsFopINkuAiFQaAuoiASJgoYikkgSISKUhoC4SIAIWikgqSYCIVBoC6iIBImChiKSSBIhIpSGgLhIgAhaKSCpJgIhUGgLqIgEiYKGIpJIEiEilIaAuEiACFopIKkmAiFQaAuoiASJgoYik0v8AOk4UDzF13WMAAAAASUVORK5CYII=;imageBorder=default;" vertex="1" parent="1">
            <mxGeometry x="28.130000000000003" y="163.13" width="63.75" height="33.75" as="geometry" />
          </mxCell>
        </UserObject>
      </root>
    </mxGraphModel>
  </diagram>
</mxfile>
